<svg xmlns="http://www.w3.org/2000/svg" xmlns:xlink="http://www.w3.org/1999/xlink" width="300" height="300" fill="none"><path fill="#F3F3F3" d="m241.8 63.54-1.08-1.8c-9.3-15.3-26.04-24.48-43.74-23.4-2.28.12-4.56.48-6.78.9-16.08 3.42-30.06 15.6-35.88 31.14-3.42 9.18-4.38 19.68-10.86 26.94-8.4 9.48-22.74 9.78-35.28 9.36-12.54-.42-26.88-.06-35.28 9.42-5.22 5.94-6.9 14.4-6.48 22.38 1.14 21.06 15.84 39.96 34.5 49.32s40.68 10.2 61.14 6.06c28.62-5.76 55.86-21.66 72.24-46.14 16.5-24.36 20.64-57.72 7.5-84.18Z"/><path fill="#F3F3F3" d="M123.24 86.58c8.981 0 16.26-7.28 16.26-16.26s-7.279-16.26-16.26-16.26c-8.98 0-16.26 7.28-16.26 16.26s7.28 16.26 16.26 16.26Z"/><path fill="#F3F3F3" d="M92.46 227.76c6.694 0 12.12-5.426 12.12-12.12 0-6.694-5.427-12.12-12.12-12.12-6.694 0-12.12 5.426-12.12 12.12 0 6.694 5.426 12.12 12.12 12.12Z"/><path fill="#F3F3F3" d="M254.82 160.14a6.06 6.06 0 1 0 0-12.12 6.06 6.06 0 0 0 0 12.12Z"/><path fill="#FFBE9D" d="M234.84 147.54c4.2-5.04 6.66-6.42 9.66-9.78 2.58-2.88 5.16-5.82 6.72-9.36 1.5-3.54 1.74-7.86-.42-11.1 0 0-6.78-1.38-11.76-1.68-5.04-.3-7.38-.24-7.38-.24l-2.76 8.4 5.04 2.04-10.32 9.3-8.16 9.48 4.02 11.7 5.46.48 9.9-9.24Z"/><path fill="#EB996E" d="M242.04 118.14c0 .06-.48.54-1.32 1.38-.9.9-2.04 2.04-3.3 3.24-1.32 1.26-2.46 2.4-3.36 3.18-.9.78-1.44 1.26-1.5 1.2 0-.06.48-.54 1.32-1.38.9-.9 2.04-2.04 3.3-3.24 1.32-1.26 2.46-2.4 3.36-3.18.9-.78 1.5-1.2 1.5-1.2Z"/><path fill="#EB996E" d="M249.48 120.36c-.06.06-.3-.24-.78-.54-.48-.3-1.2-.54-2.04-.48-.84.06-1.5.48-1.92.84-.42.36-.6.66-.66.66-.06 0 .12-.36.48-.78.42-.42 1.14-.9 2.04-.96.9-.06 1.74.24 2.22.6.54.36.72.66.66.66Z"/><path fill="#263238" d="M231.181 119.4c1.8-.54 2.82-2.76 2.1-4.5-.36-.78-1.02-1.44-1.5-2.16-.3-.42-.54-.84-.72-1.32l-.84-2.52c-.54-2.16-1.02-4.32-2.7-5.64-1.5-1.2-3.6-1.38-5.34-2.28-1.26-.66-2.34-1.62-3.54-2.28-1.26-.66-2.82-1.02-4.02-.24-.72.42-1.2 1.2-1.86 1.62-1.44.9-3.54.24-4.92 1.32-1.08.84-1.2 2.46-1.98 3.66-.84 1.26-1.38 2.4-2.76 3.12-1.38.66-2.16 1.98-2.16 3.48 0 1.32-.18 1.92-.24 3.3 0 .96-.54 1.92-.9 2.82-.36.9-1.14 4.38-.3 4.92l9.06 4.08c2.88 2.82 5.82 5.7 9.54 7.2l.72.96c-.84.12 9.06-.9 10.68-6.84.24-.84.48-1.62 1.02-2.28.54-.66 1.2-1.26 1.56-2.04.72-1.5.3-3.36-.9-4.38Z"/><path fill="#263238" d="M221.641 129.42c1.86-2.22 3.72-4.38 5.16-6.9 1.44-2.46 2.52-5.28 2.58-8.1 0-.42-.12-3.48-.54-3.6-.3-.06-.54 2.58-.78 2.76-2.34 1.8-3.9 4.5-4.8 7.32-.9 2.88-1.38 5.58-1.62 8.52Z"/><path fill="#FFBE9D" d="M203.76 147.9c4.14 1.62 12.54-5.46 12.54-5.46l9.78-23.04c2.94-6.6 1.62-13.8-5.04-16.56l-.66-.24c-6.36-2.22-13.32.78-16.02 6.96-2.52 5.7-5.28 12.06-6.3 15.24-2.22 6.54 3.96 9.84 3.96 9.84s-.6 1.5-1.32 3.36c-1.74 4.26 1.32 9.36 3.06 9.9Z"/><path fill="#EB996E" d="M201.961 134.64s4.02 1.68 9.36.48c0 0-3.72 4.02-10.02 1.14l.66-1.62Z"/><path fill="#263238" d="M203.521 115.38c.06.18.96-.12 1.98.24s1.559 1.14 1.739 1.02c.06-.06.061-.3-.179-.66-.24-.36-.721-.78-1.321-.96-.6-.24-1.259-.18-1.619-.06-.42.12-.6.3-.6.42Z"/><path fill="#263238" d="M213.42 118.38c.06.18.96-.12 1.98.24s1.56 1.14 1.74 1.02c.06-.06.06-.3-.18-.66-.24-.36-.72-.78-1.32-.96a2.53 2.53 0 0 0-1.62-.06c-.48.18-.66.36-.6.42Z"/><path fill="#263238" d="M208.14 123.06c0-.06-.54-.36-1.5-.84-.24-.12-.48-.24-.48-.42s.18-.42.42-.72c.48-.54.96-1.08 1.44-1.68 2.04-2.4 3.6-4.44 3.48-4.5-.12-.06-1.8 1.8-3.84 4.2-.48.6-.96 1.14-1.44 1.68-.18.24-.48.54-.48.96 0 .24.12.42.3.54.12.12.3.18.42.24 1.08.36 1.68.6 1.68.54Z"/><path fill="#263238" d="M210.9 124.8c-.18-.06-.54 1.02-1.74 1.44-1.2.48-2.34-.06-2.4.06-.06.06.18.3.66.48.48.18 1.26.3 1.98 0s1.2-.84 1.38-1.26c.18-.42.18-.72.12-.72Z"/><path fill="#263238" d="M215.94 112.56c0 .3 1.08.54 2.16 1.08 1.14.54 1.98 1.2 2.22 1.02.12-.12.06-.42-.24-.78-.3-.42-.78-.84-1.5-1.2-.66-.3-1.38-.42-1.86-.42-.48 0-.78.18-.78.3Z"/><path fill="#263238" d="M206.341 109.56c.12.3.9.3 1.68.6.84.24 1.5.72 1.74.48.12-.12.06-.36-.18-.66-.24-.3-.66-.66-1.26-.84-.6-.18-1.14-.12-1.5 0-.3.12-.48.3-.48.42Z"/><path fill="#FFBE9D" d="M223.861 124.08c.12 0 4.98.24 3.24 4.68-1.68 4.44-5.76 1.8-5.76 1.68.06-.18 2.52-6.36 2.52-6.36Z"/><path fill="#EB996E" d="m223.32 129.24.18.18c.12.12.3.24.6.24.54 0 1.2-.6 1.56-1.38.18-.42.24-.84.18-1.2 0-.36-.12-.66-.36-.84-.24-.12-.42-.06-.54.06-.12.12-.12.18-.12.18s-.06-.12.06-.3c.06-.06.12-.18.3-.18.12-.06.3 0 .48.06.36.18.54.6.54 1.02.06.42 0 .9-.18 1.32-.36.9-1.14 1.56-1.86 1.5-.36-.06-.54-.24-.66-.36-.18-.18-.18-.3-.18-.3Z"/><path fill="#263238" d="M210.06 103.44c-.54-.66 2.52-2.16 4.56-2.22 3.12-.18 7.44.72 9.6 2.34 2.58 1.98 4.44 4.44 4.86 7.68.42 3.24-.24 6.6-1.56 9.6-.42.9-.9 1.86-1.68 2.46-1.02.72-2.4.9-2.88 2.22-.18.48-.54.96-.96 1.14-1.14.54-1.8-.66-1.92-1.62-.3-2.1.42-4.2 1.14-6.24.48-1.44 1.02-2.88 1.92-4.08.48-.66 1.14-1.2 1.62-1.86.48-.66.78-1.5.54-2.34-.06-.12-.12-.3-.24-.48a5.127 5.127 0 0 0-4.2-2.7c-2.82-.12-7.56-.48-8.34-1.74-1.14-1.86-1.2-2.76-1.2-2.76l-1.26.6Z"/><path fill="#263238" d="M224.22 102.84c-2.1-1.74-4.86-2.82-7.62-2.52-1.44.12-2.94.72-3.84 1.86-.9 1.14-.96 3 .06 3.96l.06.06c1.62 1.38 2.94 1.62 5.1 1.68 1.8.06 3.6-.36 5.34-.24 1.92.12 3.78.78 5.28 1.92-.78-2.52-2.28-4.92-4.38-6.72Z"/><path fill="#455A64" d="M230.58 112.32s-.24.48-.84 1.14c-.6.6-1.56 1.38-2.76 1.98-1.2.6-2.4.84-3.24.96-.84.06-1.38 0-1.38 0 0-.12 2.16-.06 4.5-1.2 2.34-1.2 3.66-2.94 3.72-2.88Z"/><path fill="#455A64" d="M232.081 113.76s-.06.18-.18.48-.36.78-.72 1.26c-.72 1.02-1.92 2.28-3.66 3.12-1.74.84-3.48 1.08-4.74 1.02-.6 0-1.14-.12-1.44-.18-.36-.06-.54-.12-.54-.18s.78.12 1.98.12 2.94-.24 4.56-1.08c1.68-.84 2.88-2.04 3.6-3 .78-.9 1.08-1.56 1.14-1.56Z"/><path fill="#FFBE9D" d="m173.821 162.6-21.24-22.2-4.56 7.2 5.64 10.74s6.12 10.08 9.3 13.62c3.18 3.54 3.42 2.76 3.42 2.76l7.44-12.12Z"/><path fill="#FFBE9D" d="M144.72 133.98c-.06-.06-3.78-.6-5.28-.84-.36-.06-.78.06-1.08.24l-2.22 1.5-1.86 3.9.54.36-.54 3.48s.9.96 1.8-.12 1.62-2.64 1.62-2.64l2.4-.06-.12.24-2.46.66-.84 2.1.72 2.16 1.68 1.5h.72l1.38.84s1.38-1.2.24-2.4c0 0 1.14 1.08 1.74.66l5.04 2.28 3.96-3.84 1.08-3.06s-6.3-6.18-6.72-6.48c-.36-.24-1.8-.48-1.8-.48Z"/><path fill="#EB996E" d="M141.421 144.84c-.06 0 0-.3-.06-.78-.06-.42-.3-1.08-.84-1.5-.06 0-.06-.06-.06-.06l-.12-.06.06-.12c.18-.66.18-1.26.06-1.68-.12-.42-.24-.66-.18-.72 0 0 .24.18.42.66.18.42.24 1.14 0 1.86l-.06-.18c.06 0 .06.06.12.06.66.48.84 1.26.9 1.74-.06.54-.18.78-.24.78Z"/><path fill="#EB996E" d="M139.621 146.46c-.06-.06.3-.24.42-.72.18-.48 0-1.26-.54-1.92-.12-.18-.3-.36-.42-.54l-.06-.06v-.06c.24-.6 0-1.2-.24-1.44-.24-.3-.54-.36-.48-.42 0 0 .3 0 .66.3.36.3.66.96.42 1.68v-.12c.12.18.3.36.42.54.24.36.48.72.54 1.14.06.36.06.78-.06 1.02-.24.54-.66.66-.66.6Z"/><path fill="#EB996E" d="M139.906 142.992c.308-.195.515-.42.462-.505-.053-.084-.346.006-.654.2-.309.195-.516.42-.463.504.053.085.346-.005.655-.199Z"/><path fill="#EB996E" d="M141.18 145.2c-.06 0-.24-.42-.6-.84s-.78-.66-.72-.72c0-.06.54.06.96.54.42.48.42 1.02.36 1.02Z"/><path fill="#EB996E" d="M142.68 145.2c-.06-.06.42-1.14.6-2.64.18-1.44 0-2.64.06-2.7.06 0 .42 1.2.24 2.7-.18 1.62-.84 2.7-.9 2.64Z"/><path fill="#EB996E" d="M137.58 136.62c.06 0 0 .24-.12.6s-.3.78-.72 1.2c-.36.42-.9.66-1.26.72-.36.06-.6-.06-.6-.12s.24 0 .54-.12c.3-.06.72-.3 1.08-.72.36-.36.54-.78.72-1.14.18-.24.3-.42.36-.42Z"/><path fill="#EB996E" d="M140.22 139.38c-.06-.06.06-.24.18-.48s.24-.42.36-.42c.06 0 .12.3-.06.54-.18.36-.42.42-.48.36Z"/><path fill="#455A64" d="m124.681 133.14.06 9.06c0 3.06 12.3 2.94 12.12-.06 0-.18-.06-9.06-.06-9.06l-12.12.06Z"/><path fill="#455A64" d="M136.56 134.7c.72-.12 1.44-.12 2.16 0 .54.12 1.08.3 1.38.72.24.36.3.78.36 1.2.06.78.12 1.62-.24 2.34-.3.66-.9 1.2-1.62 1.44-.66.3-1.44.36-2.16.3v-1.38c.42 0 .84 0 1.32-.06.42-.06.84-.3 1.14-.6.48-.54.54-1.32.48-2.04 0-.3-.06-.6-.24-.78-.24-.3-.66-.42-1.08-.42-.54 0-1.02.12-1.5.3"/><path fill="#263238" d="M132.3 114.6s-.06.06-.24.12c-.18 0-.48-.06-.72-.36a.76.76 0 0 1-.24-.54c-.06-.24.06-.48.24-.66.36-.42 1.08-.48 1.62-.18.6.36.84 1.14.72 1.86-.12.78-.54 1.44-1.08 2.04-.54.6-1.08 1.26-1.38 2.04-.3.78-.18 1.74.48 2.4.6.66 1.38 1.14 2.04 1.8.3.3.54.72.66 1.2s0 .9-.24 1.32c-.42.78-1.08 1.26-1.62 1.68-.6.42-1.14.78-1.5 1.26-.78.9-.96 1.92-.96 2.58 0 .66.12 1.02.06 1.02 0 0-.06-.06-.12-.24a2.35 2.35 0 0 1-.12-.78c0-.66.12-1.74.96-2.76.36-.48.96-.9 1.56-1.32.6-.42 1.2-.9 1.56-1.56.18-.36.24-.72.18-1.08-.06-.36-.3-.72-.6-1.02-.6-.6-1.38-1.08-2.04-1.8-.66-.72-.84-1.86-.48-2.7.3-.9.96-1.5 1.44-2.1.54-.6.96-1.26 1.02-1.92.12-.66-.12-1.38-.6-1.68-.48-.3-1.08-.24-1.38.06-.36.3-.18.78 0 1.02s.48.36.6.36.18-.06.18-.06Z"/><path fill="#FFBE9D" d="m137.4 135.48 4.8-.24 5.46 1.56 6.78 5.82s-5.16 3.84-6.9 2.16c-1.68-1.68-3.66-5.4-3.66-5.4l-1.92-.84c.06 0-6.3 0-4.56-3.06Z"/><path fill="#EB996E" d="M151.321 139.92s-.12-.06-.3-.18c-.18-.18-.42-.36-.72-.6-.66-.54-1.62-1.32-2.7-2.22h.06c-1.56-.42-3.42-.96-5.46-1.5h.06c-1.5.06-3.12.18-4.8.24l.12-.06s0 .06-.06.06c-.3.48-.36 1.08 0 1.5.36.42.9.66 1.38.84 1.08.3 2.16.42 3.12.48h.06c.66.3 1.32.54 1.92.84h.06v.06c.9 1.74 1.8 3.12 2.46 4.08.3.48.6.84.78 1.02.18.24.3.36.3.36s-.12-.12-.36-.3c-.18-.24-.48-.54-.84-1.02-.72-.9-1.62-2.28-2.58-4.02l.06.06c-.6-.24-1.26-.54-1.92-.78h.06c-1.02 0-2.1-.12-3.24-.42-.54-.18-1.14-.42-1.56-.9-.18-.24-.3-.6-.3-.9 0-.36.12-.66.3-.9 0 0 0-.06.06-.06l.06-.06h.12c1.68-.06 3.3-.18 4.8-.24 2.04.6 3.9 1.14 5.46 1.56 1.08.96 1.98 1.74 2.64 2.34.3.24.54.48.72.66.18-.06.24.06.24.06Z"/><path fill="#263238" d="M136.8 142.56s-.12.12-.42.3c-.12.06-.3.18-.54.24-.18.12-.42.18-.72.3-1.08.42-2.64.72-4.38.72-1.74 0-3.3-.36-4.32-.78-.54-.18-.96-.36-1.26-.54-.3-.12-.42-.24-.42-.24 0-.06.66.24 1.74.54 1.08.3 2.58.66 4.26.66 1.68 0 3.24-.24 4.26-.6 1.14-.3 1.74-.66 1.8-.6Z"/><path fill="#263238" d="M136.879 142.441c.1 0 .172-2.096.162-4.681-.01-2.584-.099-4.679-.198-4.679-.099.001-.172 2.096-.162 4.681.01 2.585.099 4.68.198 4.679Z"/><path fill="#263238" d="M130.861 132.54s-.06-.06-.12-.18-.12-.3-.18-.48c-.12-.42 0-1.14.36-1.86.36-.72 1.08-1.44 1.92-2.1.78-.66 1.74-1.44 2.1-2.52.18-.54.24-1.14.06-1.62-.18-.48-.54-.9-.9-1.26-.72-.72-1.56-1.32-1.86-2.1-.36-.78-.18-1.5.06-1.86.12-.18.3-.3.36-.36.12-.06.18-.06.18-.06s-.24.12-.42.48a1.93 1.93 0 0 0 0 1.74c.36.72 1.08 1.26 1.86 1.98.36.36.78.84.96 1.38.24.6.18 1.26-.06 1.86-.48 1.2-1.44 1.98-2.22 2.64-.84.66-1.5 1.26-1.92 1.98-.36.66-.48 1.32-.42 1.74.12.36.24.54.24.6Z"/><path fill="#007DFE" d="m51.9 138.72-11.7-8.82s5.04-14.82 3.06-16.68l-17.94 22.02 17.64 14.52 8.94-11.04Z"/><path fill="url(#a)" d="M25.273 113.145h26.64v36.72h-26.64z"/><path fill="#E0E0E0" d="M35.64 137.46c-.48.36-1.2.24-1.56-.24-.36-.48-.24-1.2.18-1.5.48-.36 1.32-.24 1.62.24.3.48.12 1.32-.36 1.56"/><path fill="url(#b)" d="M25.273 113.145h18.72v23.616h-18.72z"/><path fill="#263238" d="M40.62 129.6c-.12-.06-.6.42-1.38.66-.78.24-1.44.18-1.5.3-.06.12.72.48 1.68.18.9-.3 1.32-1.08 1.2-1.14Z"/><path fill="#263238" d="M41.52 126.54c-.06-.12-.66.18-1.38.18-.78 0-1.32-.3-1.38-.18-.12.06.48.66 1.38.66.96 0 1.5-.6 1.38-.66Z"/><path fill="#263238" d="M39.84 122.94c-.12.06.3.66 1.14.9.84.18 1.44-.12 1.38-.24-.06-.12-.6-.06-1.26-.24s-1.14-.54-1.26-.42Z"/><path fill="#263238" d="M43.08 131.94c-.12-.06-.36.6-.9 1.14-.54.6-1.14.9-1.08 1.02 0 .12.78 0 1.44-.72.6-.66.66-1.44.54-1.44Z"/><path fill="#007DFE" d="m57.66 130.14-10.5-10.2s6.84-14.1 5.1-16.2l-20.52 19.68 15.66 16.56 10.26-9.84Z"/><path fill="#E0E0E0" d="M41.64 126.9c-.48.3-1.2.06-1.5-.42-.3-.48-.12-1.2.36-1.5.48-.3 1.32-.06 1.56.42.24.54 0 1.32-.6 1.5"/><path fill="url(#c)" d="M31.608 103.641h21.024v21.456H31.608z"/><path fill="#263238" d="M47.58 119.7c-.12-.12-.66.36-1.44.48-.78.18-1.44 0-1.5.12-.06.12.66.54 1.62.36.9-.18 1.38-.9 1.32-.96Z"/><path fill="#263238" d="M48.84 116.76c-.06-.12-.66.12-1.44 0-.72-.06-1.26-.48-1.38-.36-.12.06.36.72 1.32.84.96.12 1.62-.36 1.5-.48Z"/><path fill="#263238" d="M47.58 113.04c-.12.06.24.72 1.02 1.02.78.3 1.44.06 1.44-.06s-.6-.12-1.26-.42c-.6-.24-1.08-.66-1.2-.54Z"/><path fill="#263238" d="M49.68 122.34c-.12-.06-.48.54-1.08 1.02-.6.54-1.2.72-1.2.9 0 .12.78.06 1.5-.54.78-.6.9-1.38.78-1.38Z"/><path fill="#263238" d="M53.04 124.98s31.56 24.9 37.5 25.68l6.72 1.08 13.5 5.82 41.7 21.96 13.08 9.12 6.72 12.66.54 7.62s-30.18 3.66-34.62.96c-4.44-2.7-42.48-31.14-44.46-33.36-1.98-2.22-37.86-17.28-52.14-41.88l11.46-9.66Z"/><path fill="#263238" d="M36.78 148.86s22.92 21.24 38.94 27.42c16.02 6.18 28.86 14.04 28.86 14.04l26.88 14.64 34.56-15.6-6.84-12.24-56.1-13.2-56.94-28.86s-9.12 9.36-9.36 13.8Z"/><path fill="#263238" d="M150.54 195.84c2.58-4.68 8.04-7.62 13.38-7.2Z"/><path fill="#263238" d="M153.6 183.42c1.02 2.94-.06 6.48-2.52 8.46Z"/><path fill="#455A64" d="M133.74 169.32s.24.06.66.3c.42.18.96.48 1.68.84 1.44.78 3.36 1.86 5.4 3.12 2.1 1.26 3.9 2.52 5.22 3.42.66.48 1.2.84 1.56 1.14.36.3.54.42.54.42s-.24-.12-.6-.36c-.42-.3-.96-.6-1.62-1.02-1.32-.9-3.18-2.04-5.28-3.36-2.1-1.26-3.96-2.4-5.34-3.18-.66-.36-1.2-.72-1.62-.96-.36-.18-.6-.36-.6-.36Z"/><path fill="#455A64" d="M139.8 209.22s-.12-.06-.3-.18-.42-.3-.78-.54c-.72-.48-1.68-1.14-3-2.04-2.58-1.8-6.3-4.38-10.92-7.62s-10.08-7.08-16.14-11.34c-3.06-2.16-6.24-4.38-9.54-6.66-1.68-1.14-3.36-2.34-5.04-3.54-1.68-1.2-3.42-2.4-5.28-3.54-3.6-2.28-7.26-4.32-10.68-6.54-3.42-2.16-6.6-4.38-9.66-6.54-3-2.16-5.94-4.2-8.58-6.18a94.401 94.401 0 0 1-7.08-5.88c-4.08-3.84-6.96-7.44-8.76-10.02-.48-.66-.84-1.2-1.2-1.74-.36-.48-.6-.96-.84-1.26-.24-.36-.36-.6-.48-.78-.12-.18-.18-.3-.18-.3s.06.06.18.24.3.42.54.78c.24.36.48.78.84 1.26s.72 1.08 1.2 1.68c1.86 2.52 4.68 6.12 8.82 9.9 2.04 1.92 4.44 3.84 7.08 5.82 2.64 1.98 5.52 3.96 8.58 6.12 3.06 2.1 6.24 4.32 9.66 6.48 3.36 2.16 7.02 4.26 10.68 6.48 1.8 1.14 3.6 2.34 5.28 3.54 1.68 1.2 3.36 2.4 5.04 3.54 3.3 2.34 6.48 4.56 9.54 6.72 6.06 4.26 11.52 8.1 16.08 11.34 4.56 3.24 8.28 5.88 10.86 7.68 1.26.9 2.28 1.62 2.94 2.1.3.24.6.42.78.54.3.36.36.48.36.48Z"/><path fill="#007DFE" d="M200.521 138.06s-10.98 5.94-13.02 8.4c-1.92 2.28-23.16 23.58-23.16 23.58s-13.74 4.08-13.2 5.22c.96 2.1 4.86 5.88 6.9 7.8.9.84 1.74 1.8 2.46 2.82 1.74 2.4 5.16 7.08 7.92 11.04 3.96 5.52 4.38 12.06 4.38 12.06l9.72-5.34c4.92-1.98 7.68-7.44 13.08-10.2l16.32-17.58 4.979-10.14 1.68-25.02-2.34.18-9.119 1.2c-.06-.12-7.98-.96-6.6-4.02Z"/><path fill="#007DFE" d="m209.341 144.66 7.5-3.3s3.18-3.06 6-5.16c0 0-9.36 11.7-1.14 15.6 8.22 3.9 14.88-6.36 14.88-6.36s-1.68 2.52-2.64 4.56c-.96 1.98-5.82 8.34-5.82 8.34s-.12 3.12-2.94 6.36-5.94 8.52-8.46 9.9c-2.52 1.38-8.1 3.84-8.1 3.84s-1.86-8.82-1.02-18.42c.78-9.72 1.74-15.36 1.74-15.36Z"/><path fill="#263238" d="M220.981 154.08s-.24-.12-.66-.48c-.36-.3-.96-.78-1.56-1.5-.6-.66-1.2-1.68-1.38-2.88-.24-1.2-.06-2.58.24-3.9.66-2.7 1.92-4.92 2.88-6.42.48-.78.96-1.32 1.26-1.74.3-.42.48-.6.54-.6 0 0-.12.24-.42.66-.3.42-.72 1.02-1.14 1.8-.96 1.5-2.16 3.72-2.76 6.42-.3 1.32-.42 2.64-.24 3.78.18 1.14.72 2.1 1.32 2.76 1.08 1.38 1.98 2.04 1.92 2.1Z"/><path fill="#263238" d="M219.841 163.14s-.12.06-.3.12-.48.18-.84.36c-.78.24-1.86.6-3.36.66-.72 0-1.56-.12-2.28-.54a4.27 4.27 0 0 1-1.86-1.98c-.84-1.74-.96-3.9-.78-6.12.18-2.16.6-4.26 1.26-6.06.66-1.8 1.56-3.24 2.4-4.44.78-1.2 1.5-2.1 2.04-2.7.24-.3.42-.54.6-.72.12-.18.24-.24.24-.24s-.06.12-.18.3-.3.42-.54.72c-.48.66-1.14 1.56-1.92 2.76-.78 1.2-1.62 2.64-2.28 4.44-.66 1.74-1.02 3.78-1.2 5.94-.18 2.16-.06 4.26.72 5.94.42.84 1.02 1.5 1.74 1.86.72.42 1.5.48 2.16.54 1.38 0 2.52-.3 3.3-.54.36-.12.66-.18.9-.3h.18Z"/><path fill="#263238" d="M216.841 141.06c0 .06-.48.42-1.32 1.08-.84.66-1.92 1.62-2.94 2.82-1.08 1.2-1.92 2.4-2.46 3.3-.54.9-.9 1.44-.9 1.44-.06 0 .18-.6.72-1.56.54-.9 1.32-2.16 2.4-3.36 1.08-1.2 2.22-2.16 3.06-2.82.84-.66 1.38-.96 1.44-.9Z"/><path fill="url(#d)" d="M209.017 140.937h8.496v19.872h-8.496z"/><path fill="url(#e)" d="M215.784 137.193h6.048v17.856h-6.048z"/><path fill="url(#f)" d="M156.889 181.977h49.248v4.896h-49.248z"/><path fill="#263238" d="m189.66 208.92.54-.18c.36-.06.84-.12 1.5-.06 1.26.12 3 .72 4.38 2.1.66.66 1.26 1.38 1.62 2.16.36.78.54 1.5.54 2.16 0 .66-.06 1.14-.18 1.5l-.18.54c-.06 0 .18-.78.12-1.98-.06-.6-.24-1.32-.6-2.04s-.9-1.44-1.56-2.1c-1.32-1.32-3-1.92-4.2-2.1-1.26-.12-1.98.06-1.98 0Z"/><path fill="#455A64" d="M191.82 222.36h-57.06c-3.42 0-6.18-2.76-6.18-6.18v-1.02c0-3.42 2.76-6.18 6.18-6.18h57.06c3.42 0 6.18 2.76 6.18 6.18v1.02c0 3.42-2.76 6.18-6.18 6.18Z"/><path fill="#455A64" d="m187.8 220.98.72.48c2.28 1.5 5.34.9 6.84-1.38l40.74-61.44c1.5-2.28.9-5.34-1.38-6.84l-.72-.48c-2.28-1.5-5.34-.9-6.84 1.38l-40.74 61.44c-1.5 2.28-.9 5.34 1.38 6.84Z"/><path fill="#263238" d="M157.14 195c.12 0 4.2 4.02 5.16 6.72s2.22 9.3 2.82 11.82c.78 3.42 2.04 6.72 6.78 6.96l17.76.06c1.08 0 2.1-.54 2.7-1.44l15.6-24.06h-4.86l-13.62 20.22h-15.42c-1.08 0-2.1-.48-2.76-1.32-.24-.3-.36-.6-.48-.96-.36-1.38-1.56-8.58-3.06-11.76-1.5-3.12-3.54-6.24-3.54-6.24h-7.08Z"/><path fill="#455A64" d="M172.26 219a1.08 1.08 0 1 0-.001-2.161 1.08 1.08 0 0 0 .001 2.161Z"/><path fill="#455A64" d="M189.42 219a1.08 1.08 0 1 0-.001-2.161 1.08 1.08 0 0 0 .001 2.161Z"/><path fill="#263238" d="M211.08 195h-58.02c-.84 0-1.5-.66-1.5-1.5v-.24c0-.84.66-1.5 1.5-1.5h58.02c.84 0 1.5.66 1.5 1.5v.24c.06.84-.66 1.5-1.5 1.5Z"/><path fill="#455A64" d="M176.94 191.7h-.6c-.42 0-1.02 0-1.74.06-1.56 0-3.72.06-6.48.06-2.76 0-6.12.06-9.9.06h-2.94c-.96 0-2.04-.18-2.94.3-.42.24-.66.72-.54 1.2.06.48.48.84.96 1.08.96.42 2.1.48 3.18.42h11.76c11.88 0 22.62.06 30.42.06 3.9 0 7.02.06 9.24.06h3.42-3.42c-2.22 0-5.34 0-9.24.06-7.8 0-18.54 0-30.42.06h-11.76c-1.14.06-2.28 0-3.36-.48-.48-.24-1.02-.66-1.14-1.26 0-.12-.06-.3 0-.42 0-.18.06-.3.12-.42.12-.24.36-.48.6-.66.48-.3 1.02-.36 1.56-.36s1.02.06 1.5.06c1.02 0 1.98 0 2.88.06H176.64c.24.06.3.06.3.06Z"/><path fill="#455A64" d="M164.34 210s-.12-.24-.18-.66c-.12-.48-.3-1.08-.42-1.74-.36-1.44-.84-3.54-1.68-5.7-.42-1.08-.9-2.04-1.38-2.94-.54-.84-1.02-1.56-1.56-2.16-.96-1.14-1.74-1.74-1.68-1.8 0 0 .18.12.54.42.36.24.78.66 1.32 1.26.54.54 1.08 1.26 1.62 2.16.54.84 1.02 1.86 1.44 2.94.84 2.16 1.26 4.26 1.56 5.76.18.72.3 1.32.36 1.74 0 .48.06.72.06.72Z"/><path fill="#263238" d="M166.44 222.36h-3.9v48.78h3.9v-48.78Z"/><path fill="#263238" d="m165.6 263.34 40.2 7.92v4.2l-40.2-6.06v-6.06Z"/><path fill="#263238" d="M202.26 282a3.54 3.54 0 1 0 0-7.08 3.54 3.54 0 0 0 0 7.08Z"/><path fill="#263238" d="M164.58 263.34 132 271.26v4.2l32.58-6.48v-5.64Z"/><path fill="#263238" d="M135.6 282a3.54 3.54 0 1 0 0-7.08 3.54 3.54 0 0 0 0 7.08Z"/><path fill="#263238" d="M164.46 282a3.54 3.54 0 1 0 0-7.08 3.54 3.54 0 0 0 0 7.08Z"/><path fill="#263238" d="M168.54 274.92h-8.1l.12-30.54h8.04l-.06 30.54Z"/><path fill="#455A64" d="M164.46 244.62c2.121 0 3.84-.081 3.84-.18 0-.099-1.719-.18-3.84-.18-2.121 0-3.84.081-3.84.18 0 .099 1.719.18 3.84.18Z"/><path fill="#455A64" d="M164.22 269.94c2.121 0 3.84-.081 3.84-.18 0-.099-1.719-.18-3.84-.18-2.121 0-3.84.081-3.84.18 0 .099 1.719.18 3.84.18Z"/><path fill="#455A64" d="M219.96 173.7H28.8v8.34h191.16v-8.34Z"/><path fill="#263238" d="M69.3 173.82s0 .06-.06.12-.12.12-.18.24c-.18.18-.48.48-.96.78-.48.24-1.08.48-1.86.6s-1.62.12-2.58.12c-.96-.06-1.98-.18-3.12-.36-1.08-.18-2.28-.36-3.54-.42-2.52-.06-5.22.54-7.92 1.56-2.7.96-5.28 2.1-7.74 2.76-1.2.36-2.4.6-3.54.72-1.14.12-2.16.12-3.12 0-1.92-.18-3.36-.84-4.26-1.38-.9-.54-1.32-1.02-1.32-1.02s.06 0 .12.06.18.12.24.18c.24.18.54.42 1.02.66.9.54 2.4 1.08 4.26 1.26.96.12 1.98.12 3.06 0s2.28-.36 3.48-.72c2.4-.66 4.98-1.8 7.68-2.76 2.76-.96 5.46-1.62 8.04-1.56 1.26.06 2.46.24 3.54.42s2.16.36 3.06.36c.96.06 1.8.06 2.52-.06s1.38-.3 1.8-.54c1.08-.48 1.38-1.02 1.38-1.02Z"/><path fill="#263238" d="M48.42 173.94s-.18.18-.6.48c-.36.3-.96.72-1.74 1.14-.78.42-1.74.84-2.88 1.14-1.14.3-2.4.54-3.72.6-2.7.12-5.1-.6-6.66-1.38-.78-.42-1.32-.9-1.62-1.32-.12-.18-.24-.36-.24-.48-.06-.12-.06-.18-.06-.18s.12.24.36.66c.3.36.84.84 1.62 1.2 1.56.72 3.96 1.38 6.6 1.26 1.32-.06 2.58-.24 3.66-.54 1.08-.3 2.04-.72 2.82-1.08.78-.42 1.38-.78 1.74-1.02.48-.3.72-.48.72-.48Z"/><path fill="#263238" d="M93.24 179.28s.12.06.3.12.48.18.9.24c.78.12 2.04.18 3.36-.54v.12c-1.02-.78-2.46-1.44-4.14-1.62-1.68-.18-3.72.18-5.4 1.38-.18.12-.42.3-.42.54 0 .24.12.42.36.54.24.12.48.18.72.24s.54.12.84.18c1.08.24 2.22.48 3.42.66 1.14.18 2.4.3 3.6.24.6 0 1.26-.06 1.86-.18l.9-.18c.3-.06.6-.18.9-.3.42-.18.84-.48 1.14-.84.3-.36.36-.84.24-1.26-.18-.42-.54-.78-.9-1.02-.42-.24-.84-.42-1.26-.6-1.74-.72-3.6-1.02-5.28-1.08-3.48-.18-6.6.48-9.06 1.38-2.46.96-4.26 2.1-5.46 3-.6.48-1.02.78-1.32 1.08-.12.12-.24.24-.36.3l-.12.12.12-.12.3-.3c.3-.3.72-.66 1.32-1.08 1.14-.9 3-2.1 5.46-3.06s5.64-1.68 9.12-1.44c1.74.12 3.6.42 5.4 1.08.42.18.9.36 1.32.66.42.3.84.6 1.02 1.14.18.48.06 1.08-.24 1.5-.3.42-.78.72-1.26.9-.3.12-.6.24-.96.3-.3.06-.6.12-.96.18-.6.12-1.26.18-1.86.18-1.26.06-2.46-.06-3.66-.24-1.2-.18-2.34-.42-3.42-.66-.3-.06-.54-.12-.84-.18-.24-.06-.54-.12-.78-.3-.12-.06-.24-.18-.36-.3s-.12-.3-.12-.48c.06-.36.3-.54.48-.66 1.74-1.26 3.78-1.56 5.52-1.38 1.74.18 3.18.9 4.2 1.68l.06.06-.06.06c-1.38.72-2.64.66-3.42.48-.78-.3-1.2-.54-1.2-.54Z"/><path fill="#263238" d="M117.84 174.06s.12.12.18.42c.12.3.18.72.12 1.26-.06 1.08-.72 2.52-1.86 3.66-.54.6-1.14 1.08-1.74 1.5-.6.36-1.2.66-1.68.84-.48.18-.9.24-1.2.3-.3.06-.48.06-.48.06 0-.06.66-.12 1.62-.48.48-.18 1.02-.48 1.62-.84.54-.36 1.14-.9 1.68-1.44 1.14-1.14 1.74-2.46 1.86-3.48.18-1.2-.18-1.8-.12-1.8Z"/><path fill="#263238" d="M152.159 181.62s-.24-.36-.9-.84c-.6-.48-1.62-1.14-3-1.32-.72-.12-1.44-.06-2.28.06-.84.12-1.68.36-2.64.24-.96-.06-1.86-.66-2.64-1.32s-1.68-1.26-2.64-1.56c-2.04-.72-4.14-.6-5.94-.12-1.8.48-3.24 1.38-4.38 2.22-1.14.84-1.98 1.62-2.52 2.16l-.66.66-.24.24s.06-.12.18-.24c.12-.18.36-.36.6-.66.54-.54 1.38-1.38 2.52-2.22 1.14-.84 2.58-1.74 4.44-2.28 1.8-.54 3.96-.66 6.06.06 1.02.36 1.92.96 2.7 1.62.78.6 1.62 1.2 2.52 1.26.9.12 1.8-.12 2.64-.24.84-.12 1.62-.18 2.34-.06 1.44.24 2.46.9 3 1.44.66.54.84.9.84.9Z"/><path fill="#263238" d="M182.82 173.82s-.06.12-.18.3-.36.48-.66.78c-.6.66-1.5 1.56-2.82 2.46-1.26.96-2.88 1.92-4.86 2.7-.96.42-2.04.72-3.12 1.02-1.08.24-2.28.42-3.48.42-2.4 0-4.68-.6-6.6-1.38a21.07 21.07 0 0 1-4.8-2.76 20.48 20.48 0 0 1-2.76-2.52c-.3-.3-.48-.6-.66-.78-.12-.18-.24-.3-.24-.3s.12.06.24.24c.18.18.36.42.66.72.6.66 1.56 1.5 2.82 2.4 1.26.9 2.88 1.86 4.8 2.64s4.14 1.38 6.54 1.32c1.2 0 2.34-.18 3.42-.42s2.16-.6 3.12-.96c1.92-.78 3.54-1.68 4.8-2.64 1.26-.9 2.22-1.74 2.82-2.4.3-.3.54-.6.66-.72.24-.06.3-.12.3-.12Z"/><path fill="#263238" d="M178.44 173.7s-.06.06-.18.12-.3.18-.48.36c-.42.3-1.08.66-1.92 1.08-.84.42-1.86.84-3 1.26-1.2.36-2.52.66-3.96.66-2.88 0-5.34-.96-7.02-1.8-.84-.42-1.5-.84-1.92-1.14-.24-.12-.36-.3-.48-.36s-.18-.12-.18-.12.24.12.66.42c.42.3 1.08.66 1.92 1.02 1.68.78 4.14 1.68 6.96 1.68 1.38 0 2.7-.3 3.9-.66 1.14-.36 2.16-.78 3-1.2.84-.42 1.5-.78 1.92-1.02.54-.18.78-.3.78-.3Z"/><path fill="#263238" d="M211.86 174.6h-.36c-.3 0-.66 0-1.08-.06-.24 0-.48 0-.78-.06H206.46c-.42 0-.84 0-1.32.06-.48.06-.9.06-1.44.12-.96.06-1.98.18-3.12.3-2.16.3-4.5.66-6.9 1.2-2.4.54-4.56 1.2-6.42 1.86-.9.36-1.86.66-2.64 1.02-.42.18-.78.3-1.14.48-.36.18-.72.3-1.02.48-.66.3-1.2.6-1.68.84-.24.12-.48.24-.66.36-.18.12-.36.24-.54.3-.3.18-.54.3-.78.42-.18.12-.3.18-.3.12 0 0 .06-.06.24-.18s.42-.3.72-.48l.54-.36c.18-.12.42-.24.66-.36.48-.3 1.02-.6 1.68-.9.3-.18.66-.3 1.02-.48s.78-.3 1.14-.48c.78-.36 1.68-.66 2.64-1.02 1.92-.66 4.08-1.32 6.48-1.86 2.4-.54 4.8-.9 6.96-1.2 1.08-.12 2.16-.24 3.12-.3.48 0 .96-.06 1.44-.06h4.56c.3 0 .54.06.78.06.42.06.78.06 1.08.06.18.06.3.06.3.12Z"/><path fill="#263238" d="M155.64 181.44s-.3-.54-1.08-1.26-2.04-1.62-3.84-2.16c-.9-.3-1.92-.48-3-.66-1.08-.18-2.28-.3-3.54-.54-1.26-.18-2.52-.54-3.84-.96-1.32-.36-2.64-.78-4.08-.96-2.88-.36-5.58.24-7.92 1.08-1.14.42-2.22.96-3.24 1.44-.96.48-1.92 1.02-2.7 1.5-1.62.96-2.94 1.74-3.84 2.28-.42.24-.78.48-1.02.66-.12.06-.18.12-.3.18-.06.06-.12.06-.12.06l.06-.06c.06-.06.18-.12.24-.18.24-.18.6-.36 1.02-.66.9-.6 2.16-1.38 3.84-2.34.84-.48 1.74-.96 2.7-1.5.96-.54 2.04-1.02 3.24-1.5 2.34-.9 5.1-1.5 8.04-1.14 1.44.18 2.82.6 4.08 1.02 1.32.42 2.58.78 3.78.96 1.2.24 2.4.36 3.48.54 1.08.18 2.1.42 3 .72 1.8.6 3.12 1.5 3.84 2.22.96.72 1.2 1.26 1.2 1.26Z"/><path fill="#263238" d="M112.56 173.82v.54c-.06.36-.18.84-.36 1.44-.42 1.14-1.32 2.7-2.94 3.78a17.872 17.872 0 0 1-4.38 1.98c-.6.18-1.08.36-1.38.42-.36.06-.54.12-.54.12s.18-.06.48-.18c.36-.12.84-.3 1.38-.48 1.14-.42 2.7-1.02 4.26-2.04 1.56-1.02 2.46-2.52 2.94-3.6.48-1.2.48-1.98.54-1.98Z"/><path fill="#263238" d="M68.16 182.1s.18-.18.48-.42c.3-.3.78-.66 1.38-1.14 1.2-.9 2.88-2.04 4.86-3.12a81.811 81.811 0 0 1 6.78-3.3c.36-.18.6-.24.6-.24s-.18.12-.54.3c-.42.18-.96.48-1.56.78-1.32.66-3.18 1.56-5.16 2.64s-3.72 2.22-4.86 3.06c-.6.42-1.08.78-1.38 1.08-.36.24-.54.36-.6.36Z"/><path fill="#263238" d="M77.22 174.18s-.42-.06-1.26 0c-.78.06-1.92.3-3.18.96-1.26.6-2.64 1.68-4.14 2.76-.78.54-1.56 1.14-2.52 1.62-.9.48-1.92.84-3 1.14-2.1.54-4.2.66-6.12.72-1.86.06-3.6 0-4.98.06-1.44.06-2.58.18-3.36.3-.42.06-.72.12-.9.18-.18.06-.3.06-.3.06s.12-.06.3-.12.48-.12.9-.24c.78-.18 1.92-.36 3.36-.42s3.12-.06 5.04-.12c1.86-.06 3.96-.18 6.06-.72 1.02-.3 2.04-.66 2.94-1.14.9-.48 1.74-1.02 2.46-1.56 1.5-1.08 2.88-2.16 4.2-2.76 1.32-.66 2.46-.9 3.24-.9.42 0 .72 0 .9.06.24.12.36.12.36.12Z"/><path fill="#455A64" d="M46.44 282.24h-2.76l-1.5-100.8h5.76l-1.5 100.8Z"/><path fill="#263238" d="M221.519 282.06h-2.7l1.32-100.32h5.82l-4.44 100.32Z"/><path fill="#263238" d="M235.08 173.7h-24.24v8.34h24.24v-8.34Z"/><path fill="#007DFE" d="m60.42 159.36 2.22 14.46h12.72l3-14.22-17.94-.24Z"/><path fill="#FAFAFA" d="M69.24 168.72c4.044 0 7.32-.027 7.32-.06s-3.276-.06-7.32-.06c-4.042 0-7.32.027-7.32.06s3.278.06 7.32.06Z"/><path fill="#FAFAFA" d="M69.24 168c4.044 0 7.32-.027 7.32-.06s-3.276-.06-7.32-.06c-4.042 0-7.32.027-7.32.06s3.278.06 7.32.06Z"/><path fill="#FAFAFA" d="M69.24 167.16c4.044 0 7.32-.027 7.32-.06s-3.276-.06-7.32-.06c-4.042 0-7.32.027-7.32.06s3.278.06 7.32.06Z"/><path fill="#FAFAFA" d="M64.108 173.014c.033-.006-.083-.831-.259-1.843-.175-1.012-.344-1.828-.377-1.822-.032.005.084.831.26 1.843.175 1.012.344 1.828.376 1.822Z"/><path fill="#FAFAFA" d="M64.98 172.86c-.06 0-.12-.78-.18-1.8-.06-.96-.12-1.8-.06-1.8s.18.78.24 1.74c.06 1.02 0 1.86 0 1.86Z"/><path fill="#FAFAFA" d="M66.54 172.86c-.06 0-.24-.78-.36-1.8s-.12-1.86-.12-1.86c.06 0 .12.84.24 1.8.18 1.02.3 1.8.24 1.86Z"/><path fill="#FAFAFA" d="M67.68 172.92c-.06 0-.12-.84-.18-1.86s0-1.86.06-1.86.06.84.12 1.86v1.86Z"/><path fill="#FAFAFA" d="M69.597 172.795c.033-.001.033-.78 0-1.741-.032-.96-.085-1.738-.118-1.737-.033.001-.034.781-.001 1.741.032.961.086 1.738.119 1.737Z"/><path fill="#FAFAFA" d="M71.153 171.127c.008-.994-.012-1.8-.045-1.801-.033 0-.067.806-.075 1.8-.008.994.012 1.8.046 1.8.033.001.066-.805.074-1.799Z"/><path fill="#FAFAFA" d="M72.628 170.822c.103-1.056.159-1.914.126-1.917-.033-.003-.143.85-.245 1.905-.103 1.055-.159 1.914-.126 1.917.033.003.143-.85.245-1.905Z"/><path fill="#FAFAFA" d="M74.161 172.56c-.06 0 0-.72.24-1.62.18-.9.42-1.56.48-1.56s-.12.72-.3 1.56c-.3.9-.42 1.62-.42 1.62Z"/><path fill="#007DFE" d="M58.98 156.54v2.7c0 .6.48 1.08 1.08 1.08h18.48c.6 0 1.08-.48 1.08-1.08v-2.7H58.98Z"/><path fill="url(#g)" d="M60.553 160.233h17.712v2.304H60.553z"/><path fill="#455A64" d="M65.64 156.54c-2.7-1.56-4.14-5.22-4.26-8.22-.12-3 1.14-6.12 3.6-7.86 2.58-1.8 6.3-1.8 8.94-.06 2.64 1.68 4.2 4.92 4.08 8.1-.12 3.18-1.86 6.18-4.38 8.04"/><path fill="#263238" d="M70.02 156.78s-.06-.24-.06-.66c0-.48-.06-1.14-.06-1.86-.06-1.56-.12-3.78-.18-6.18-.12-2.4-.24-4.56-.36-6.18-.06-.78-.06-1.38-.12-1.86v-.66s.06.24.12.66c.06.42.12 1.08.18 1.86.12 1.56.3 3.78.42 6.18s.12 4.62.12 6.18v1.86c-.06.42-.06.66-.06.66Z"/><path fill="#263238" d="M62.2 147.593c.006-.066-.418-.155-.946-.198-.529-.044-.961-.025-.967.041-.005.066.419.154.947.198.529.043.961.025.967-.041Z"/><path fill="#263238" d="M62.354 144.93c.027-.06-.295-.262-.72-.45-.423-.188-.789-.291-.816-.231-.027.061.295.262.72.45.423.189.789.292.816.231Z"/><path fill="#263238" d="M63.72 142.92c-.06.06-.48-.12-.9-.48-.42-.36-.72-.72-.66-.78.06-.06.42.24.84.6.42.3.78.6.72.66Z"/><path fill="#263238" d="M65.13 141.046c.061-.027-.042-.393-.23-.817-.187-.424-.388-.747-.448-.72-.061.027.042.393.23.817.187.424.388.746.448.72Z"/><path fill="#263238" d="M67.32 139.68c-.06 0-.3-.3-.42-.78-.12-.48-.18-.84-.06-.9.06 0 .18.36.36.78.06.54.18.9.12.9Z"/><path fill="#263238" d="M70.834 138.827c.121-.344.169-.64.106-.662-.062-.022-.211.238-.333.582-.121.344-.169.64-.106.662.062.022.211-.238.333-.582Z"/><path fill="#263238" d="M73.271 139.863c.268-.247.448-.487.403-.536-.045-.049-.298.113-.566.36-.267.248-.448.488-.403.536.046.049.299-.112.566-.36Z"/><path fill="#263238" d="M75.535 141.347c.301-.204.516-.414.479-.469-.037-.055-.312.066-.614.271-.302.204-.516.414-.48.469.038.055.313-.066.615-.271Z"/><path fill="#263238" d="M76.968 143.627c.427-.182.752-.379.726-.44-.026-.061-.393.037-.82.219-.426.183-.751.38-.725.44.026.061.393-.037.82-.219Z"/><path fill="#263238" d="M77.601 145.918c.428-.053.768-.149.76-.215-.008-.066-.362-.076-.79-.023-.427.053-.766.149-.758.215.008.066.36.076.788.023Z"/><path fill="#263238" d="M78.74 148.792c.026-.061-.297-.26-.723-.445-.425-.185-.791-.286-.818-.225-.026.061.297.26.723.445.425.185.791.286.818.225Z"/><path fill="#263238" d="M78.42 151.38c0 .06-.48-.06-.96-.36s-.78-.66-.72-.72c.06-.06.42.24.84.54.48.3.84.48.84.54Z"/><path fill="#263238" d="M77.04 153.78c-.06.06-.42-.18-.78-.54-.36-.36-.54-.78-.48-.78.06-.06.3.24.66.6.36.36.66.66.6.72Z"/><path fill="#263238" d="M63.179 154.653c.5-.26.88-.519.849-.578-.03-.059-.46.105-.96.365-.5.26-.88.519-.85.577.031.059.461-.104.96-.364Z"/><path fill="#263238" d="M62.136 152.33c.392-.178.688-.371.66-.432-.027-.06-.367.035-.76.213-.392.178-.688.371-.66.431.027.061.367-.035.76-.212Z"/><path fill="#263238" d="M61.104 150.239c.459-.065.824-.171.815-.237-.01-.065-.39-.066-.849 0-.46.065-.824.171-.815.236.01.066.39.066.849.001Z"/><path fill="#263238" d="M64.8 148.92c0 .06-.36.24-.84.3s-.9 0-.9-.12c0-.06.36-.12.84-.18.48 0 .9-.06.9 0Z"/><path fill="#263238" d="M67.2 146.52c0 .06-.3.24-.66.24-.42.06-.72-.06-.72-.12s.3-.12.66-.12c.36 0 .72-.06.72 0Z"/><path fill="#263238" d="M67.662 144.681c.021-.063-.266-.219-.641-.349-.376-.13-.698-.184-.72-.122-.022.063.265.219.641.349.376.13.698.185.72.122Z"/><path fill="#263238" d="M68.52 142.74c-.06.06-.24-.12-.42-.36s-.18-.54-.12-.54.18.18.3.42c.18.24.3.42.24.48Z"/><path fill="#263238" d="M67.5 150.6c0 .06-.24.18-.6.3-.18.06-.42.06-.54.06l-.06-.12h.18s0 .06-.12.12l-.06-.12c.12-.06.3-.12.48-.18.36-.12.66-.12.72-.06Z"/><path fill="#263238" d="M67.185 154.429c.463-.182.818-.379.794-.441-.024-.061-.419.036-.882.218-.462.182-.818.379-.793.441.024.061.419-.036.881-.218Z"/><path fill="#263238" d="M64.716 152.759c.313-.106.55-.244.529-.306-.021-.063-.293-.027-.607.079-.313.107-.55.244-.529.307.021.063.293.027.607-.08Z"/><path fill="#263238" d="M65.46 145.62c0 .06-.42 0-.9-.12-.48-.18-.78-.36-.78-.48.06-.06.42.06.84.24.48.12.84.3.84.36Z"/><path fill="#263238" d="M71.481 145.367c.332-.219.572-.441.535-.496-.036-.056-.335.077-.667.296-.332.219-.571.441-.535.496.037.056.335-.077.667-.296Z"/><path fill="#263238" d="M71.783 148.5c.324-.067.576-.175.563-.239-.014-.065-.288-.063-.612.004-.325.067-.577.175-.563.239.013.065.287.063.612-.004Z"/><path fill="#263238" d="M72.77 152.043c.028-.06-.267-.255-.658-.436-.39-.181-.73-.279-.758-.219-.028.06.267.256.657.437.391.181.73.279.759.218Z"/><path fill="#263238" d="M71.883 155.803c.05-.042-.095-.304-.326-.586-.232-.282-.46-.476-.512-.434-.051.042.095.305.326.586.231.282.46.476.512.434Z"/><path fill="#263238" d="M71.7 142.38c.06.06-.12.24-.36.36s-.48.12-.54.06c0-.06.18-.18.42-.3s.42-.18.48-.12Z"/><path fill="#263238" d="M74.88 145.8c0 .06-.3.24-.66.3-.42.06-.72 0-.72-.06s.3-.12.72-.18c.36-.12.66-.12.66-.06Z"/><path fill="#263238" d="M74.28 142.74c.06.06-.24.3-.66.42-.42.12-.78.12-.78.06s.3-.18.72-.3c.36-.18.66-.24.72-.18Z"/><path fill="#263238" d="M75.6 150.54c0 .06-.48.12-1.08 0-.6-.12-1.08-.3-1.02-.42 0-.06.48.06 1.08.12.54.18 1.02.24 1.02.3Z"/><path fill="#263238" d="M74.4 154.98c-.06.06-.42-.18-.78-.54-.36-.36-.6-.72-.54-.78.06-.06.36.24.72.6s.66.66.6.72Z"/><path fill="#263238" d="M69.18 139.08c.06.06-1.02.48-2.22 1.74-1.2 1.26-2.46 3.48-2.76 6.12-.12 1.32 0 2.64.18 3.78.18 1.14.48 2.16.72 3 .24.84.48 1.56.6 1.98.18.48.24.72.24.72s-.12-.24-.3-.72-.42-1.14-.72-1.98c-.24-.84-.54-1.86-.78-3.06-.18-1.14-.36-2.46-.18-3.84.3-2.76 1.62-4.98 2.88-6.24.66-.66 1.2-1.08 1.68-1.32.24-.12.42-.18.48-.24.12.12.18.06.18.06Z"/><path fill="#263238" d="M72.66 156.66c-.06 0 .6-1.02 1.14-2.76.6-1.74 1.08-4.26.66-7.02-.18-1.38-.6-2.64-1.08-3.72-.54-1.08-1.2-1.98-1.86-2.58-.66-.6-1.32-.96-1.8-1.14-.48-.18-.78-.24-.72-.24h.18c.12 0 .36.06.6.18.48.18 1.2.48 1.92 1.08.72.6 1.38 1.5 1.92 2.58s.96 2.4 1.14 3.84c.42 2.82-.12 5.4-.78 7.14-.12.42-.3.84-.48 1.14-.18.3-.3.6-.42.84-.24.42-.42.72-.42.66Z"/><path fill="#007DFE" d="M236.221 242.34c-4.5 1.56-10.32.18-14.16-2.64-3.84-2.82-6.6-6.78-9-10.86-1.02-1.74-2.04-3.54-2.4-5.52-.3-1.98.18-4.26 1.68-5.52 2.4-2.04 6.06-1.02 8.82.54 8.58 4.86 14.4 14.16 15.06 24Z"/><path fill="#007DFE" d="M231.421 253.02c-2.7 3.54-7.32 5.1-11.76 5.34-4.44.18-8.82-1.02-12.96-2.64-1.5-.6-3.18-1.38-3.66-2.88-.42-1.14 0-2.46.78-3.42s1.86-1.56 3-2.04c4.08-1.74 8.76-1.8 13.08-.72 4.26 1.14 7.98 3.6 11.52 6.36Z"/><path fill="#007DFE" d="M236.281 223.2c-3.72.06-6.48-3.18-8.16-6.48-2.34-4.56-3.12-9.9-2.22-14.94.36-1.92 1.08-3.96 2.76-4.86 1.74-.9 3.96-.3 5.4 1.02 1.44 1.32 2.22 3.18 2.82 5.04 1.92 6.42 1.5 13.8-.6 20.22Z"/><path fill="#007DFE" d="M248.401 243.66c-6.3-10.74-7.38-23.88-3.66-35.76.6-1.92 1.74-4.14 3.78-4.26 2.22-.12 3.66 2.34 4.26 4.5 2.16 7.56 1.68 15.54 1.2 23.4-.24 4.8-1.92 8.94-5.58 12.12Z"/><path fill="#007DFE" d="M255.001 248.04c2.28-7.38 8.1-13.5 15.3-16.26 1.68-.66 3.78-1.02 5.04.3 1.2 1.26.84 3.36.06 4.92-1.26 2.52-3.36 4.56-5.4 6.54-1.86 1.8-3.84 3.54-6.18 4.62s-6.66 1.32-8.82-.12Z"/><path fill="#263238" d="m215.881 220.44.12.12c.12.06.18.18.36.24.3.24.78.6 1.32.96.3.24.6.48.96.72s.72.6 1.08.9c.78.66 1.68 1.38 2.64 2.22.48.42.96.9 1.5 1.38.54.48 1.02 1.02 1.56 1.56 1.08 1.02 2.16 2.28 3.3 3.54 2.22 2.58 4.44 5.58 6.48 8.88 2.04 3.36 3.72 6.66 5.04 9.78.6 1.56 1.26 3.06 1.68 4.5.24.72.48 1.38.66 2.04.18.66.36 1.32.54 1.92.36 1.2.6 2.34.84 3.36.12.48.24.96.3 1.38.06.42.12.84.18 1.2.12.66.24 1.26.3 1.62.06.18.06.3.06.42s.06.12.06.12v-.12c0-.12-.06-.24-.06-.42-.06-.42-.12-.96-.24-1.62-.06-.36-.12-.78-.18-1.2-.06-.42-.18-.9-.3-1.38-.24-1.02-.42-2.16-.78-3.36-.18-.6-.36-1.26-.54-1.92-.18-.66-.42-1.38-.66-2.1-.42-1.44-1.08-2.94-1.68-4.5-1.32-3.12-3-6.48-5.04-9.84-2.1-3.3-4.32-6.3-6.54-8.88-1.14-1.26-2.22-2.46-3.3-3.54-.54-.54-1.02-1.08-1.56-1.5-.54-.48-1.02-.9-1.5-1.32-.96-.9-1.86-1.56-2.64-2.22-.42-.3-.78-.6-1.14-.9-.36-.24-.66-.48-.96-.66-.6-.42-1.02-.72-1.38-.96-.12-.12-.24-.18-.36-.24-.12-.12-.12-.18-.12-.18Z"/><path fill="#263238" d="M207.48 250.26s.18 0 .42-.06c.3-.06.72-.18 1.2-.24 1.08-.18 2.64-.42 4.56-.54 3.84-.24 9.36.24 14.82 2.52 5.52 2.28 9.66 5.88 12.24 8.76 1.26 1.44 2.22 2.76 2.82 3.66.3.42.54.84.66 1.02.18.24.24.36.24.36l-.18-.36c-.12-.24-.36-.6-.66-1.08-.6-.9-1.5-2.22-2.76-3.72-2.52-2.94-6.72-6.6-12.3-8.88-5.52-2.28-11.1-2.76-14.94-2.46-1.98.12-3.54.42-4.56.66-.54.12-.96.24-1.2.3-.18 0-.36.06-.36.06Z"/><path fill="#263238" d="M230.821 201.18v.18c0 .12.06.3.12.48.12.42.24 1.08.42 1.86.36 1.62.9 3.9 1.62 6.78 1.38 5.7 3.42 13.62 5.52 22.32 1.02 4.38 1.98 8.52 2.82 12.36.78 3.78 1.5 7.26 1.98 10.14.3 1.44.48 2.76.66 3.9.18 1.14.36 2.16.48 2.94.12.78.24 1.44.3 1.86.06.18.06.36.06.48s.06.18.06.18v-.18c0-.12-.06-.3-.06-.48-.06-.48-.12-1.08-.24-1.86-.12-.84-.24-1.8-.42-2.94s-.36-2.46-.6-3.9c-.48-2.88-1.14-6.36-1.92-10.14-.78-3.78-1.74-7.98-2.76-12.36-2.1-8.7-4.14-16.62-5.58-22.32-.72-2.82-1.32-5.16-1.68-6.78-.18-.78-.36-1.38-.48-1.86-.06-.18-.12-.36-.12-.48-.18-.12-.18-.18-.18-.18Z"/><path fill="#263238" d="M245.281 263.82s0-.06.06-.12c0-.12.06-.24.06-.36.06-.36.18-.84.3-1.5.24-1.32.6-3.18 1.02-5.52.78-4.68 1.74-11.16 2.34-18.36.3-3.6.42-7.08.54-10.2.06-3.12 0-5.94-.06-8.34 0-1.2-.12-2.28-.18-3.18-.06-.96-.12-1.74-.18-2.4-.06-.66-.12-1.14-.12-1.5 0-.18-.06-.3-.06-.42v-.12.54c0 .36.06.9.06 1.5.06.66.12 1.5.12 2.4.06.96.12 2.04.12 3.18.06 2.34.06 5.22 0 8.34s-.24 6.6-.54 10.2c-.6 7.2-1.5 13.68-2.28 18.36-.36 2.34-.72 4.26-.96 5.52-.12.66-.18 1.14-.24 1.5 0 .18-.06.3-.06.42.06 0 .06.06.06.06Z"/><path fill="#263238" d="m244.801 265.14.18-.36c.12-.3.24-.66.42-1.08.12-.24.18-.48.3-.78.12-.3.24-.6.42-.9.12-.3.3-.66.48-1.02s.36-.72.6-1.14c.18-.42.42-.84.66-1.26.24-.42.48-.84.78-1.32.48-.9 1.14-1.86 1.8-2.82 1.38-1.92 2.94-4.02 4.74-6.06 1.8-2.04 3.72-3.84 5.46-5.46.9-.78 1.74-1.56 2.58-2.16.42-.3.84-.66 1.2-.96.42-.3.78-.54 1.14-.84.72-.54 1.38-1.02 1.98-1.38.6-.42 1.08-.72 1.56-1.02.42-.24.72-.48.96-.6s.36-.24.36-.24l-.36.18c-.24.12-.6.36-1.02.6-.42.24-.96.54-1.56.96-.6.36-1.26.84-2.04 1.38-.36.24-.78.54-1.14.84-.36.3-.78.6-1.2.96-.84.66-1.68 1.38-2.58 2.16-1.8 1.56-3.66 3.42-5.52 5.46-1.8 2.04-3.42 4.14-4.74 6.12-.66 1.02-1.26 1.92-1.8 2.88-.24.48-.54.9-.78 1.32-.24.42-.42.84-.66 1.26-.18.42-.42.78-.54 1.14-.18.36-.3.72-.42 1.08-.12.3-.24.66-.36.9-.12.3-.18.54-.3.78-.18.48-.3.84-.36 1.08-.18.18-.24.3-.24.3Z"/><path fill="#263238" d="M218.221 232.92c0 .06.78.06 1.98.12s2.94.24 4.74.6c1.86.36 3.48.84 4.62 1.2 1.14.36 1.86.66 1.92.6 0 0-.18-.12-.48-.24-.3-.18-.78-.36-1.38-.54-1.14-.42-2.82-.96-4.68-1.32-1.86-.36-3.6-.48-4.8-.48h-1.44c-.3 0-.48.06-.48.06Z"/><path fill="#263238" d="M213.421 256.2c.06.06.78-2.04 2.58-3.9 1.8-1.92 3.78-2.82 3.72-2.88 0-.06-.54.12-1.26.54-.78.42-1.74 1.14-2.64 2.1-.9.96-1.56 2.04-1.92 2.82-.36.78-.48 1.32-.48 1.32Z"/><path fill="#263238" d="M229.681 209.94c-.06.06 1.08 1.2 2.4 2.76 1.26 1.56 2.16 2.94 2.22 2.88.06-.06-.72-1.5-2.04-3.06-1.26-1.62-2.52-2.64-2.58-2.58Z"/><path fill="#263238" d="M233.174 205.878c.239-1.405.38-2.553.315-2.564-.065-.011-.312 1.119-.551 2.523-.239 1.405-.38 2.553-.315 2.564.066.011.312-1.119.551-2.523Z"/><path fill="#263238" d="M249.25 231.651c.058-.03-.784-1.772-1.882-3.89-1.098-2.119-2.036-3.811-2.094-3.781-.059.031.783 1.773 1.881 3.891 1.098 2.118 2.036 3.811 2.095 3.78Z"/><path fill="#263238" d="M250.962 219.943c.798-1.602 1.396-2.925 1.337-2.954-.06-.03-.754 1.245-1.552 2.847-.797 1.602-1.395 2.924-1.336 2.954.059.029.754-1.245 1.551-2.847Z"/><path fill="#263238" d="M262.621 240.96c0 .06 1.26-.18 2.82-.24 1.56-.12 2.82-.06 2.82-.12s-1.26-.3-2.88-.18c-1.5.12-2.76.48-2.76.54Z"/><path fill="#263238" d="m255.6 262.2-3.539 18.48c-.24 1.2-1.321 2.1-2.521 2.1h-10.379c-1.26 0-2.341-.9-2.581-2.16l-3.059-18.42H255.6Z"/><path fill="#455A64" d="M254.461 268.2h-19.86l-1.08-6H255.6l-1.139 6Z"/><path fill="#FAFAFA" d="m254.461 268.2-.42 2.16h-19.14l-.3-2.16h19.86Z"/><path fill="#E0E0E0" d="m94.62 147.84 10.981 24.3c.48 1.02 1.86 1.8 2.94 1.86l50.7-.06c-.12-1.08-1.02-1.86-2.1-1.92l-19.26-.42-9.84-23.64c-.3-.78-1.02-1.26-1.86-1.26l-30.72-.24c-.66 0-1.14.72-.84 1.38Z"/><path fill="#263238" d="M94.62 147.84s-.06-.06-.12-.3c0-.18 0-.54.3-.84.12-.12.36-.24.6-.3h2.76c2.94 0 7.26 0 12.66.06 2.7 0 5.64.06 8.88.06H126c.42 0 .96.06 1.32.3.42.24.72.6.9 1.08l.54 1.26c2.82 6.78 5.94 14.28 9.36 22.38l-.12-.12c3.36.06 6.84.12 10.38.24 1.8.06 3.6.06 5.4.12.9 0 1.8.06 2.76.06h.72c.24 0 .48.06.72.12.48.18.9.48 1.14.9.18.3.3.66.36.96v.18h-51c-.24 0-.54-.06-.78-.12-.96-.3-1.86-.96-2.22-1.92-.42-.9-.78-1.74-1.14-2.58-3-6.66-5.4-12.06-7.08-15.84-.84-1.86-1.5-3.3-1.92-4.32-.24-.48-.36-.84-.48-1.14-.24-.12-.24-.24-.24-.24l.18.36.54 1.08c.48.96 1.14 2.4 1.98 4.26 1.68 3.72 4.14 9.12 7.2 15.78.36.84.78 1.68 1.14 2.58.36.84 1.2 1.5 2.1 1.8.48.18.96.12 1.44.12h4.74c4.32 0 8.94 0 13.74-.06 9.72 0 20.34-.06 31.56-.06l-.18.18c-.06-.3-.12-.6-.3-.84-.24-.36-.6-.66-.96-.78-.18-.06-.42-.12-.6-.12h-.72c-.9 0-1.86-.06-2.76-.06-1.8-.06-3.66-.06-5.4-.12-3.54-.06-7.02-.18-10.38-.24h-.12l-.06-.12c-3.36-8.1-6.48-15.6-9.3-22.38l-.54-1.26c-.18-.42-.48-.72-.84-.96s-.78-.3-1.2-.24h-1.32c-1.74 0-3.36-.06-4.98-.06-3.18-.06-6.18-.06-8.88-.06-5.4-.06-9.66-.12-12.66-.12h-2.76a.76.76 0 0 0-.54.24c-.24.24-.3.6-.3.78.12.18.18.3.18.3Z"/><path fill="#455A64" d="M136.921 174.18s-.06-.06-.12-.24c-.12-.24-.24-.48-.36-.78-.3-.72-.78-1.74-1.26-2.94-1.08-2.46-2.52-5.88-4.08-9.66-1.56-3.78-2.94-7.26-3.9-9.78-.48-1.26-.84-2.28-1.08-3-.12-.3-.18-.6-.3-.84-.06-.18-.06-.3-.06-.3s.06.06.12.3c.12.24.18.48.36.78.3.72.72 1.74 1.2 2.94 1.02 2.52 2.46 5.94 3.96 9.72 1.56 3.78 2.94 7.2 4.02 9.72.48 1.2.9 2.22 1.2 2.94.12.3.24.6.3.78 0 .24.06.36 0 .36Z"/><path fill="#fff" d="M115.5 161.16a1.56 1.56 0 1 0 .001-3.119 1.56 1.56 0 0 0-.001 3.119Z"/><path fill="#263238" d="M282.6 282.24c0 .06-59.52.18-132.9.18-73.44 0-132.9-.06-132.9-.18 0-.06 59.52-.18 132.9-.18 73.38.06 132.9.12 132.9.18Z"/><defs><pattern id="a" width="1" height="1" patternContentUnits="objectBoundingBox"><use xlink:href="#h" transform="scale(.0052 .00388)"/></pattern><pattern id="b" width="1" height="1" patternContentUnits="objectBoundingBox"><use xlink:href="#i" transform="scale(.00752 .00599)"/></pattern><pattern id="c" width="1" height="1" patternContentUnits="objectBoundingBox"><use xlink:href="#j" transform="scale(.00667 .0065)"/></pattern><pattern id="d" width="1" height="1" patternContentUnits="objectBoundingBox"><use xlink:href="#k" transform="scale(.01587 .00704)"/></pattern><pattern id="e" width="1" height="1" patternContentUnits="objectBoundingBox"><use xlink:href="#l" transform="scale(.02174 .00775)"/></pattern><pattern id="f" width="1" height="1" patternContentUnits="objectBoundingBox"><use xlink:href="#m" transform="scale(.00289 .02632)"/></pattern><pattern id="g" width="1" height="1" patternContentUnits="objectBoundingBox"><use xlink:href="#n" transform="scale(.00775 .05882)"/></pattern></defs></svg>