<svg width="128" height="128" viewBox="0 0 128 128" fill="none" xmlns="http://www.w3.org/2000/svg">
<rect width="128" height="128" fill="#F3654D"/>
<g clip-path="url(#clip0_1507_7801)">
<path d="M28.4545 62.5716C28.4545 47.4475 11.1552 48.738 11.1552 48.738C15.2829 46.2795 36.5478 43.2138 36.5478 64.4842C36.5478 85.7545 19.8763 81.6889 19.8763 81.6889C23.8822 80.702 28.4545 77.6958 28.4545 62.5716Z" fill="white"/>
<path d="M72.0127 68.2685C76.1232 69.7492 77.2949 72.6351 78.5469 75.7187C78.9874 76.8037 79.4379 77.9132 80.0298 78.9946C80.0298 78.9946 78.0132 79.4858 77.2707 79.4858C74.91 79.4858 74.2443 77.8325 73.4737 75.9189C72.5645 73.6609 71.5093 71.0404 67.3514 70.3454V79.4858C67.3514 79.4858 62.5041 79.4858 62.5041 77.0301V50.3655C62.5041 50.3655 67.3514 50.3655 67.3514 52.8203V66.5685C69.5514 66.2287 70.7825 64.5668 72.4609 61.3563C73.1668 59.998 74.5858 59.5059 76.0405 59.5059C76.9404 59.5213 77.8329 59.674 78.6878 59.959C78.0872 60.7884 77.5535 61.7279 77.015 62.676C75.7142 64.966 74.3847 67.3066 72.0127 68.2685Z" fill="white"/>
<path fill-rule="evenodd" clip-rule="evenodd" d="M58.402 73.0267C58.402 77.1814 55.5301 79.6743 49.4187 79.6743C43.3073 79.6743 40.4353 77.1814 40.4353 73.0267V65.9641C40.4353 61.8094 43.3063 59.3175 49.4187 59.3175C55.531 59.3175 58.402 61.8094 58.402 65.9641V73.0267ZM53.5538 66.5277C53.5538 64.2233 52.8461 62.9012 49.415 62.9012C45.9839 62.9012 45.2753 64.2233 45.2753 66.5277V72.4566C45.2753 74.761 45.9839 76.0775 49.415 76.0775C52.8461 76.0775 53.5538 74.7564 53.5538 72.4566V66.5277Z" fill="white"/>
<path fill-rule="evenodd" clip-rule="evenodd" d="M89.5027 62.9801C92.3737 62.9801 93.1198 64.1889 93.1198 65.5491C92.5421 66.6769 90.7547 67.1139 88.755 67.6029C85.4651 68.4074 81.6004 69.3524 81.601 73.7444C81.601 78.2389 85.3685 79.6743 89.2093 79.6743C90.3063 79.6743 91.3339 79.4931 92.3281 79.3179C93.2596 79.1537 94.1617 78.9946 95.0641 78.9946C95.9963 78.9946 96.9653 79.1079 97.9351 79.599V65.7747C97.9351 61.658 95.0265 59.3165 89.5448 59.3165C86.4823 59.3165 82.1198 60.3016 82.1198 63.5873C82.1198 64.6077 82.4544 65.7784 83.5361 67.2509C83.5361 64.0757 86.3704 62.9801 89.5027 62.9801ZM90.2411 70.8502C91.5931 70.5401 92.8689 70.2474 93.2317 69.4012V75.5604C92.1293 76.0093 90.9521 76.24 89.7639 76.24C87.6382 76.24 86.4071 75.3719 86.4071 73.6719C86.4071 71.7298 88.3951 71.2737 90.2411 70.8502Z" fill="white"/>
<path d="M114.152 66.1154C114.152 64.1137 113.221 62.9801 110.577 62.9801C109.378 62.9912 108.185 63.1693 107.034 63.5093V79.4858C107.034 79.4858 102.187 79.4858 102.187 77.0301V59.3175C103.233 59.8318 104.38 60.1024 105.543 60.1094C106.434 60.1094 107.299 59.9209 108.185 59.7278C109.115 59.5251 110.068 59.3175 111.098 59.3175C114.939 59.3175 119.005 60.6386 119.005 65.5491V79.4858C119.005 79.4858 114.156 79.4097 114.156 77.0301L114.152 66.1154Z" fill="white"/>
<path d="M25.2251 74.4583C25.2251 74.4583 23.554 80.3307 18.5059 81.0734C15.6488 81.4938 14.1075 80.7885 12.6716 80.1314C11.5704 79.6275 10.5313 79.152 9.00835 79.2342C9.00835 79.2342 8.72143 76.4777 11.5622 76.0887C12.3599 75.9794 13.3536 75.9608 14.4486 75.9403C17.2531 75.8878 20.7226 75.8228 23.268 74.1909C23.268 74.1909 25.3626 73.0768 25.7714 72.5402L25.2251 74.4583Z" fill="white"/>
<path d="M10.893 49.7946C12.3918 49.7491 18.8002 49.8289 24.511 54.1099C23.3184 53.5213 21.9755 53.3263 20.6436 53.8527C19.1265 54.4553 17.856 55.9983 17.7515 57.6593C17.6328 59.5511 17.6726 61.4736 17.7121 63.3872C17.7318 64.3407 17.7515 65.2919 17.7515 66.2361V74.7833C16.6112 74.89 15.4708 74.9123 14.4295 74.9318L14.4077 74.9323C13.3121 74.9534 12.278 74.9734 11.4293 75.0897C11.2488 75.1148 11.0698 75.1498 10.893 75.1946V49.7946Z" fill="white"/>
</g>
<defs>
<clipPath id="clip0_1507_7801">
<rect width="110" height="35" fill="white" transform="translate(9 47)"/>
</clipPath>
</defs>
</svg>
