<svg width="128" height="128" viewBox="0 0 128 128" fill="none" xmlns="http://www.w3.org/2000/svg">
<rect width="128" height="128" fill="#FF7A59"/>
<path fill-rule="evenodd" clip-rule="evenodd" d="M82.5693 82.9701C76.2201 82.9701 71.07 77.8185 71.07 71.4626C71.07 65.1067 76.2185 59.9535 82.5693 59.9535C88.9202 59.9535 94.072 65.1051 94.072 71.4626C94.072 77.8202 88.9235 82.9701 82.5693 82.9701ZM86.0138 49.306V39.0599C87.3607 38.4361 88.5035 37.4361 89.3076 36.1777C90.1117 34.9193 90.5437 33.4549 90.5528 31.9566V31.7197C90.5528 27.3895 87.012 23.8488 82.6889 23.8488H82.4514C78.1334 23.8488 74.5876 27.3912 74.5876 31.7197V31.9566C74.5971 33.4548 75.0292 34.9191 75.8333 36.1774C76.6373 37.4357 77.7798 38.4357 79.1265 39.0599V49.306C75.2486 49.8976 71.5918 51.5071 68.5207 53.9738L40.4367 32.1094C40.6332 31.3901 40.7387 30.6485 40.7506 29.9023C40.7506 24.996 36.7829 21.0135 31.8819 21C26.9809 20.9866 23.005 24.9624 23 29.8704C22.995 34.7784 26.961 38.7526 31.862 38.761C33.3971 38.7543 34.904 38.3439 36.2349 37.5701L63.8671 59.0868C61.3813 62.8317 60.0826 67.2537 60.144 71.7638C60.2054 76.2739 61.624 80.6581 64.2109 84.3323L55.804 92.7475C54.8094 92.4322 53.759 92.3387 52.7252 92.4735C51.6914 92.6083 50.6987 92.9682 49.8157 93.5283C48.9326 94.0884 48.1801 94.8355 47.6101 95.718C47.04 96.6006 46.6658 97.5977 46.5135 98.6406C46.3611 99.6834 46.434 100.747 46.7273 101.759C47.0206 102.771 47.5273 103.706 48.2124 104.5C48.8975 105.295 49.7447 105.93 50.6958 106.361C51.6468 106.793 52.6791 107.01 53.7214 107C57.7471 107 61.0122 103.731 61.0122 99.7014C61.0051 98.9932 60.8931 98.29 60.6801 97.6152L68.984 89.2975C72.8931 92.2941 77.6643 93.9146 82.5693 93.9116C94.9605 93.9116 105 83.862 105 71.4626C105 60.239 96.7592 50.9705 86.0122 49.306" fill="white"/>
</svg>
