<svg width="128" height="128" viewBox="0 0 128 128" fill="none" xmlns="http://www.w3.org/2000/svg">
<rect width="128" height="128" fill="white"/>
<path d="M108.506 25.5217H122.211C124.883 25.5217 127.505 28.1973 128 31.3188V115.203C128 118.87 125.378 121 122.211 121H5.78894C2.12756 121 0 118.374 0 115.748V31.3188C0 27.6523 2.12756 25.5217 5.78894 25.5217H19.4944V11.7971C19.4944 8.13056 22.1167 6 25.2833 6H52.1501C55.8113 6 57.939 8.62603 57.939 11.7971V25.5217H70.061V11.7971C70.061 8.13056 72.6834 6 75.8499 6H102.717C106.378 6 108.506 8.62603 108.506 11.7971V25.5217Z" fill="#ED793E"/>
</svg>
