<svg width="128" height="128" viewBox="0 0 128 128" fill="none" xmlns="http://www.w3.org/2000/svg">
<rect width="128" height="128" fill="white"/>
<g clip-path="url(#clip0_1492_7833)">
<path d="M16.192 0H111.808C116.102 0 120.221 1.70594 123.257 4.74253C126.294 7.77912 128 11.8976 128 16.192V128H16.192C11.8976 128 7.77912 126.294 4.74253 123.257C1.70594 120.221 0 116.102 0 111.808V16.192C0 11.8976 1.70594 7.77912 4.74253 4.74253C7.77912 1.70594 11.8976 0 16.192 0Z" fill="#A4286A"/>
<path d="M128 16.192C128.001 11.9027 126.299 7.78848 123.269 4.75263C120.239 1.71677 116.128 0.00746073 111.839 0L39.4905 128H128V16.192Z" fill="#6C2548"/>
<path d="M19.0463 85.8112V94.7456C24.5759 94.5152 28.9023 92.6976 32.5631 88.9856C36.2239 85.2736 39.5775 79.2576 42.7775 70.3232L66.4831 6.83521H55.0143L35.9167 59.8784L26.4447 30.1312H15.9487L29.8751 65.92C31.2165 69.3608 31.2165 73.18 29.8751 76.6208C28.4671 80.256 25.9327 84.5312 19.0463 85.8112V85.8112Z" fill="white"/>
<path d="M106.547 9.19043L82.0225 52.5824C87.7754 55.8165 94.5763 56.6367 100.933 54.8629C107.29 53.0891 112.684 48.8662 115.931 43.1207C119.178 37.3752 120.014 30.5762 118.255 24.2153C116.496 17.8543 112.285 12.4509 106.547 9.19043V9.19043Z" fill="#77B227"/>
<path d="M72.576 18.6368C69.3269 24.389 68.4958 31.1962 70.2654 37.5611C72.035 43.9261 76.2603 49.3275 82.0121 52.5772L106.547 9.19036C103.701 7.5788 100.564 6.54372 97.3177 6.14422C94.071 5.74472 90.7775 5.98863 87.6251 6.86201C84.4727 7.73539 81.5232 9.22114 78.945 11.2344C76.3668 13.2477 74.2105 15.7491 72.599 18.5958L72.576 18.6368Z" fill="#9FDA4F"/>
<path d="M75.3921 64.1281L59.3665 92.4928C63.1279 94.618 67.5794 95.1618 71.7418 94.0048C73.8028 93.4319 75.7308 92.4587 77.4157 91.1407C79.1006 89.8227 80.5094 88.1857 81.5617 86.3233C82.6139 84.4608 83.289 82.4093 83.5485 80.2859C83.8079 78.1626 83.6465 76.0089 83.0736 73.9479C82.5007 71.8869 81.5275 69.9589 80.2095 68.274C78.8915 66.5891 77.2545 65.1803 75.3921 64.1281V64.1281Z" fill="#F49A00"/>
<path d="M75.4433 64.1792C73.5825 63.1253 71.5324 62.4482 69.4099 62.1865C67.2874 61.9249 65.1342 62.0839 63.0732 62.6544C58.9108 63.8066 55.3766 66.5652 53.2481 70.3232C51.1196 74.0812 50.5711 78.5309 51.7233 82.6933C52.8755 86.8557 55.6341 90.3899 59.3921 92.5184L75.4433 64.1792Z" fill="#FEC228"/>
<path d="M51.9425 105.651L42.3169 122.675C44.5656 123.833 47.1753 124.074 49.5982 123.348C52.021 122.623 54.0685 120.987 55.3108 118.784C56.5531 116.581 56.8936 113.982 56.2607 111.534C55.6279 109.085 54.071 106.977 51.9169 105.651H51.9425Z" fill="#ED261F"/>
<path d="M51.9425 105.677C49.7515 104.288 47.0987 103.827 44.5676 104.395C42.0366 104.962 39.8346 106.512 38.4462 108.703C37.0577 110.894 36.5965 113.546 37.164 116.078C37.7314 118.609 39.2811 120.811 41.4721 122.199C41.7435 122.371 42.0251 122.529 42.3118 122.675L51.9425 105.677Z" fill="#FF4E47"/>
</g>
<defs>
<clipPath id="clip0_1492_7833">
<rect width="128" height="128" fill="white"/>
</clipPath>
</defs>
</svg>
