<svg width="128" height="128" viewBox="0 0 128 128" fill="none" xmlns="http://www.w3.org/2000/svg">
<rect width="128" height="128" fill="white"/>
<path fill-rule="evenodd" clip-rule="evenodd" d="M81.162 66.0523C79.9699 66.0417 78.8039 65.7013 77.793 65.0687C76.7821 64.4364 75.9662 63.5368 75.4349 62.4692L73.5552 58.24H54.7587L52.879 62.4692C52.3479 63.5368 51.5318 64.4364 50.521 65.0687C49.5102 65.7013 48.3442 66.0417 47.1519 66.0523H46.1533L54.1713 127.141C54.5825 128.286 55.3461 128.286 55.7866 127.141L63.7163 107.61L70.6476 127.082C71.0588 128.228 71.8224 128.228 72.263 127.082L81.5145 66.111L81.162 66.0523Z" fill="url(#paint0_linear_1492_7823)"/>
<path fill-rule="evenodd" clip-rule="evenodd" d="M72.7916 56.5364H55.581L52.9378 62.469C52.4954 63.3486 51.858 64.1152 51.0741 64.7108C50.2902 65.3064 49.3807 65.7149 48.4148 65.9053L54.465 103.586C54.8762 104.262 55.6398 104.262 56.0803 103.586L63.8338 91.7798L70.9413 103.528C71.4112 104.232 72.1161 104.232 72.5567 103.528L79.4292 65.7878C78.5701 65.5411 77.7716 65.1187 77.084 64.5475C76.3965 63.9763 75.8349 63.2685 75.4349 62.469L72.7916 56.5364Z" fill="url(#paint1_linear_1492_7823)"/>
<path fill-rule="evenodd" clip-rule="evenodd" d="M75.4353 62.4695L64.1279 37.2117L52.8791 62.4695C52.5027 63.1937 52.0061 63.8492 51.4106 64.4079L56.0805 89.4601C56.3154 89.7831 56.9615 89.9006 57.4316 89.4601L63.6873 81.1485L69.9725 89.372C70.3543 89.9006 71.0592 89.7831 71.3235 89.372L76.4926 64.0554C76.0838 63.5664 75.7293 63.0348 75.4353 62.4695Z" fill="url(#paint2_linear_1492_7823)"/>
<path fill-rule="evenodd" clip-rule="evenodd" d="M28.0909 2.90758C27.7384 1.70343 28.4433 0.851711 29.6475 0.851711H39.5451C40.25 0.851711 40.8961 1.4391 41.1017 2.02649L48.3561 30.6618H48.7085L61.8076 0.939819C61.9345 0.663599 62.1371 0.428877 62.3917 0.262613C62.6461 0.0963555 62.9424 0.00532763 63.2467 0H64.7739C65.5375 0 66.0368 0.411168 66.2424 0.939819L79.312 30.6618H79.6644L86.9482 2.05586C87.053 1.7254 87.2545 1.43399 87.5267 1.21933C87.799 1.00467 88.1294 0.876616 88.4754 0.851711H98.373C99.5772 0.851711 100.223 1.70343 99.9296 2.90758L83.9524 59.5907C83.8664 59.9373 83.6658 60.2451 83.3833 60.4636C83.101 60.6821 82.753 60.7987 82.3958 60.7949H81.0742C80.7658 60.7917 80.4648 60.7018 80.2051 60.5356C79.9455 60.3693 79.7376 60.1335 79.6057 59.8551L64.1278 25.3459H63.8928L48.5029 59.8844C48.3607 60.1549 48.1505 60.384 47.8931 60.5488C47.6356 60.7135 47.3397 60.8084 47.0344 60.8243H45.7128C45.367 60.814 45.0333 60.6947 44.7591 60.4839C44.4849 60.273 44.2842 59.9811 44.1855 59.6495L28.0909 2.87821V2.90758Z" fill="#F56F46"/>
<defs>
<linearGradient id="paint0_linear_1492_7823" x1="45.5953" y1="128.345" x2="46.0946" y2="58.24" gradientUnits="userSpaceOnUse">
<stop stop-color="#DD5F29"/>
<stop offset="0.26" stop-color="#F26B32"/>
<stop offset="1" stop-color="#FAC932"/>
</linearGradient>
<linearGradient id="paint1_linear_1492_7823" x1="47.8861" y1="104.35" x2="48.1798" y2="56.5364" gradientUnits="userSpaceOnUse">
<stop stop-color="#DD5F29"/>
<stop offset="0.26" stop-color="#F26B32"/>
<stop offset="1" stop-color="#FAC932"/>
</linearGradient>
<linearGradient id="paint2_linear_1492_7823" x1="50.9995" y1="90.0181" x2="51.4106" y2="37.241" gradientUnits="userSpaceOnUse">
<stop stop-color="#DD5F29"/>
<stop offset="0.26" stop-color="#F26B32"/>
<stop offset="1" stop-color="#FAC932"/>
</linearGradient>
</defs>
</svg>
