<svg width="128" height="128" viewBox="0 0 128 128" fill="none" xmlns="http://www.w3.org/2000/svg">
<rect width="128" height="128" fill="white"/>
<path d="M90.1856 114.055C91.7183 117.355 91.4825 122.425 93.6045 125.018C93.8404 125.136 93.9583 125.254 94.1941 125.372C107.044 124.665 107.752 110.046 101.503 103.209C98.6739 100.615 94.6656 99.4362 89.7141 101.558C64.2493 112.522 39.8455 105.567 25.1089 90.3588C17.0922 82.4602 11.6692 72.0861 10.3723 60.8867C6.36398 25.4021 35.6014 2.88536 55.6431 0.409692C73.6807 -1.71231 90.4214 4.5358 101.857 16.2068C114.236 28.4672 120.838 46.9758 116.829 68.1958C115.061 77.8627 109.284 90.0051 96.3162 90.0051C91.011 90.0051 85.9415 87.7652 82.2869 83.8749C78.9859 80.692 76.628 76.33 76.3922 71.2609C75.0955 52.045 99.9707 46.74 98.3203 27.4062C98.0845 23.9874 96.5518 20.9223 94.1941 18.4467C86.6489 11.2555 71.5586 8.54401 57.8831 11.3734C40.9066 14.7921 24.6373 30.2356 21.8079 48.7441C19.4501 63.716 24.7552 80.8099 35.955 92.3629C45.858 102.148 60.1231 107.571 77.8069 103.445C83.4658 102.148 87.8279 96.8427 97.1414 98.2575C100.442 98.7289 103.154 100.262 105.04 102.384C112.467 109.339 111.289 123.957 101.621 127.258C96.5518 129.026 87.4741 127.612 83.4658 123.25L83.3479 123.132C82.8763 122.896 82.4048 122.425 81.9332 121.953C80.4006 120.656 79.3396 118.181 79.5753 115.351C79.8111 111.343 82.4048 108.278 85.2342 108.514C86.4131 108.632 87.4741 109.221 88.1814 110.164C89.1246 111.107 89.832 112.404 90.1856 114.055Z" fill="#524F54"/>
</svg>
