<?xml version="1.0" encoding="UTF-8"?> <svg xmlns="http://www.w3.org/2000/svg" width="170" height="34" viewBox="0 0 170 34" fill="none"><g clip-path="url(#clip0)"><path d="M20.282 9.10681C23.6666 6.67276 26.7353 5.26 28.7147 5.27702C28.7061 4.57064 28.5093 3.98162 28.1152 3.59013C26.5985 2.08374 22.4927 3.57615 17.8057 6.99742C18.6283 7.65274 19.4594 8.36638 20.282 9.10681Z" fill="url(#paint0_linear)"></path><path d="M9.65694 19.5154C10.4024 20.3579 11.1907 21.2005 12.0304 22.0345C12.8102 22.8175 13.6071 23.5494 14.3868 24.2473C15.218 23.626 16.0577 22.9451 16.906 22.2132C16.0406 21.4558 15.1666 20.6473 14.2926 19.7792C13.3672 18.86 12.5017 17.9239 11.6877 17.0047C12.4932 16.0856 13.3586 15.1494 14.2926 14.2302C15.158 13.3707 16.0452 12.5375 16.9192 11.7801C16.0709 11.0482 15.2186 10.3621 14.396 9.7408C13.6077 10.4387 12.8102 11.1919 12.0304 11.9749C11.1907 12.809 10.3938 13.6515 9.64837 14.4941C9.477 14.2728 9.31419 14.0515 9.15996 13.8388C6.7179 10.46 5.30407 7.41322 5.32121 5.44727C4.61001 5.45578 4.03592 5.64301 3.64176 6.0345C2.12511 7.54088 3.60748 11.626 7.0435 16.2898C7.21488 16.5281 7.39482 16.7579 7.57476 16.9962C7.39482 17.2345 7.21488 17.4728 7.0435 17.7026C3.60748 22.3664 2.11737 26.4602 3.63402 27.9666C4.02818 28.358 4.60145 28.5366 5.31264 28.5451C5.2955 26.5792 6.70933 23.5324 9.15996 20.1622C9.32276 19.9494 9.48556 19.7366 9.65694 19.5154Z" fill="url(#paint1_linear)"></path><path d="M28.1136 30.396C28.5077 30.0045 28.7024 29.4214 28.7109 28.715C26.7316 28.7321 23.6664 27.3193 20.2818 24.8853C19.4507 25.6257 18.6097 26.3468 17.7871 27.0106C22.4741 30.4234 26.5969 31.9024 28.1136 30.396Z" fill="url(#paint2_linear)"></path><path d="M17.103 27.5577C24.1721 33.0641 30.7871 35.4896 33.2463 33.047C35.7055 30.6045 33.2634 24.0258 27.7281 16.996C33.272 9.96619 35.714 3.38746 33.2548 0.94491C30.7871 -1.48913 24.1721 0.936399 17.103 6.44278C10.0339 0.936399 3.41888 -1.48913 0.959686 0.95342C-1.49951 3.39597 0.942549 9.9747 6.47788 17.0045C0.933981 24.0343 -1.50808 30.613 0.951118 33.0555C3.41031 35.4896 10.0253 33.0641 17.103 27.5577ZM28.1137 30.3917C26.597 31.8981 22.4927 30.4173 17.8056 26.996C18.6282 26.3321 19.4594 25.6258 20.2819 24.8853C21.096 24.1534 21.9186 23.3875 22.724 22.5789C23.4695 21.8385 24.1807 21.0896 24.8662 20.3407C27.3082 23.7024 28.722 26.7492 28.7049 28.7151C28.7049 29.43 28.5078 30.0002 28.1137 30.3917ZM28.1222 3.60874C28.5164 4.00023 28.7049 4.57044 28.7135 5.27682C28.7306 7.24278 27.3168 10.2896 24.8747 13.6513C24.1892 12.9024 23.478 12.1534 22.7326 11.413C21.9271 10.613 21.1131 9.83853 20.2905 9.10661C19.4594 8.36619 18.6368 7.6598 17.8142 6.99597C22.4926 3.58321 26.6056 2.10236 28.1222 3.60874ZM3.64167 27.9662C2.12502 26.4598 3.61596 22.3747 7.05198 17.7109C7.22335 17.4811 7.4033 17.2428 7.58324 17.0045C7.4033 16.7662 7.22335 16.5364 7.05198 16.2981C3.60739 11.6258 2.12502 7.54065 3.64167 6.03427C4.03582 5.64278 4.60992 5.45555 5.32112 5.44704C7.30047 5.43002 10.3595 6.84278 13.7355 9.26831C12.9815 9.94917 12.2274 10.6641 11.4734 11.4045C10.6679 12.2045 9.86685 13.0033 9.13851 13.8118C9.30132 14.0331 9.47837 14.2764 9.64756 14.4977C10.4089 13.6805 11.2047 12.7917 12.053 11.9577C12.8328 11.1747 13.6156 10.4428 14.3953 9.74491C15.2265 10.3662 16.0662 11.047 16.9145 11.779C17.8485 12.5875 18.791 13.4555 19.725 14.3832C20.5904 15.2513 21.413 16.1194 22.1756 16.9875C21.413 17.8555 20.5904 18.7321 19.725 19.5917C18.791 20.5194 17.8485 21.3875 16.9145 22.196C16.0662 22.9279 15.2179 23.6087 14.3953 24.23C13.607 23.5321 12.8187 22.8002 12.0389 22.0173C11.1992 21.1832 10.4023 20.3407 9.66541 19.4981C9.50261 19.7194 9.31997 19.9407 9.16573 20.1534C9.90263 20.9619 10.6765 21.7704 11.482 22.5704C12.2274 23.3194 12.9815 24.0258 13.7441 24.7066C10.368 27.1407 7.30047 28.5449 5.32969 28.5279C4.60992 28.5449 4.03582 28.3577 3.64167 27.9662Z" fill="url(#paint3_radial)"></path></g><path fill-rule="evenodd" clip-rule="evenodd" d="M59.9008 24.4857L52.0445 16.8248L59.6139 9.51404H57.2306L51.4707 15.1175C51.2043 15.3644 50.9537 15.6276 50.7204 15.9055C50.5006 15.6228 50.2569 15.3592 49.9921 15.1175L44.1881 9.51404H41.8048L49.3963 16.8248L41.562 24.4857H43.8792L50.0142 18.5102C50.2349 18.2913 50.4776 18.0067 50.7204 17.7222C50.9631 18.0067 51.2059 18.2694 51.4486 18.5102L57.5616 24.4857H59.9008V24.4857ZM70.4274 24.4857V11.0462H78.5045V9.51404H60.6511V11.0462H68.7282V24.4857H70.4274V24.4857ZM98.8515 11.1338V9.51404H87.0008C81.903 9.51404 79.8948 12.0093 79.8948 16.9999C79.8948 22.0123 81.9251 24.4857 87.0008 24.4857H98.8515V22.866H87.0008C83.2492 22.866 81.7706 21.1806 81.6382 17.766H98.4763V16.2338H81.6382C81.7485 12.8192 83.2492 11.1338 87.0008 11.1338H98.8515ZM112.755 21.1368H114.101L122.641 11.3527V24.4857H124.318V9.51404H122.685C122.045 9.51404 121.758 9.84236 121.472 10.1707L113.439 19.4295L105.384 10.1707C105.097 9.84236 104.81 9.51404 104.17 9.51404H102.537V24.4857H104.214V11.3527L112.755 21.1368ZM138.332 9.31704C131.711 9.31704 127.96 10.8711 127.96 16.9999C127.96 23.1286 131.711 24.6827 138.332 24.6827C144.952 24.6827 148.682 23.1286 148.682 16.9999C148.682 10.8711 144.952 9.31689 138.331 9.31689L138.332 9.31704ZM138.332 23.0849C132.815 23.0849 129.703 22.1655 129.703 16.9999C129.703 11.8342 132.815 10.9368 138.332 10.9368C143.849 10.9368 146.938 11.8342 146.938 16.9999C146.938 22.1655 143.848 23.0849 138.331 23.0849H138.332ZM151.33 22.9535V24.4857H164.483C168.301 24.4857 170 22.9316 170 20.4364C170 17.766 168.058 16.6497 164.483 16.3432L157.2 15.7303C154.42 15.4896 153.382 14.7891 153.382 13.3007C153.382 11.7467 154.53 11.0462 156.538 11.0462H168.941V9.51404H156.671C153.78 9.51404 151.639 10.6522 151.639 13.3445C151.639 15.8179 153.404 17.0218 156.759 17.2844L164.24 17.8973C167.065 18.1381 168.257 18.9261 168.257 20.502C168.257 22.078 167.087 22.9535 164.571 22.9535H151.33V22.9535Z" fill="#101010"></path><defs><linearGradient id="paint0_linear" x1="1.44493" y1="6.06372" x2="29.5884" y2="6.06655" gradientUnits="userSpaceOnUse"><stop offset="0.267544" stop-color="#682323"></stop><stop offset="0.821669" stop-color="#D54141"></stop></linearGradient><linearGradient id="paint1_linear" x1="1.4429" y1="16.9995" x2="29.5878" y2="17.0023" gradientUnits="userSpaceOnUse"><stop offset="0.13692" stop-color="#D54141"></stop><stop offset="1" stop-color="#682323"></stop></linearGradient><linearGradient id="paint2_linear" x1="1.44279" y1="27.9261" x2="29.5858" y2="27.9289" gradientUnits="userSpaceOnUse"><stop offset="0.257163" stop-color="#682323"></stop><stop offset="0.761637" stop-color="#D54141"></stop></linearGradient><radialGradient id="paint3_radial" cx="0" cy="0" r="1" gradientUnits="userSpaceOnUse" gradientTransform="translate(20.0087 16.999) rotate(-180) scale(20.0087 19.8732)"><stop offset="0.161765" stop-color="#E34545"></stop><stop offset="1" stop-color="#802323"></stop></radialGradient><clipPath id="clip0"><rect width="34.206" height="34" fill="white"></rect></clipPath></defs></svg> 