<svg width="32" height="32" viewBox="0 0 32 32" fill="none" xmlns="http://www.w3.org/2000/svg">
<g clip-path="url(#clip0_2701_7338)">
<path d="M4.30006 -1.62572e-05H27.7998C28.3578 0.00649097 28.9092 0.122532 29.4224 0.341483C29.9355 0.560432 30.4003 0.878001 30.7904 1.27605C31.1804 1.67411 31.4879 2.14485 31.6954 2.6614C31.9029 3.17794 32.0063 3.73018 31.9997 4.28656V27.7132C32.0037 28.2772 31.8952 28.8365 31.6805 29.3583C31.4658 29.8802 31.1492 30.3543 30.7492 30.7532C30.3491 31.152 29.8735 31.4675 29.35 31.6816C28.8265 31.8956 28.2655 32.0038 27.6998 31.9998H4.30006C3.15218 31.9687 2.0615 31.4936 1.25892 30.6748C0.456346 29.8562 0.00487903 28.7582 0.000106142 27.6135V4.28656C-0.00388312 3.72253 0.104615 3.16333 0.319294 2.64147C0.533974 2.1196 0.850555 1.64547 1.25063 1.24663C1.65072 0.847788 2.12633 0.532192 2.64983 0.31818C3.17332 0.104167 3.73426 -0.00399313 4.30006 -1.62572e-05Z" fill="#1D1D1D"/>
<path opacity="0.05" d="M8.60865 16.0873C8.57924 16.1143 8.54851 16.1439 8.51641 16.1763C7.68273 17.0177 2.03224 24.683 4.71854 27.3005C6.57546 29.1098 11.1323 27.2564 15.8803 23.5001C18.2333 25.5999 24.7769 29.6805 27.228 27.207C29.4204 24.9945 26.559 19.765 23.4484 15.9893C26.5589 12.2136 29.4202 6.98424 27.2278 4.77176C24.7544 2.27563 18.1134 6.45388 15.8168 8.53561C11.0918 4.85273 6.5673 2.99966 4.71868 4.86522C2.03238 7.57615 7.77551 15.148 8.51655 15.9893C8.54809 16.0252 8.57879 16.0577 8.60865 16.0873ZM8.14567 8.32406C8.14938 8.17833 8.15264 8.03813 8.15541 7.9033C9.51071 8.12741 11.4341 9.35004 13.3967 10.8825C12.3683 11.8719 11.2746 12.9254 10.5543 13.6524C10.5543 13.6991 10.5776 13.7461 10.6007 13.7928C9.14216 11.8618 8.10488 9.92974 8.14567 8.32406ZM10.5426 18.2207C11.009 18.6908 12.3384 20.0289 13.5626 21.2463C11.4416 22.9192 9.34897 24.2536 7.95036 24.3825C7.73484 23.9097 8.28569 21.1248 10.5426 18.2207ZM24.2163 24.1436C23.6765 24.3298 20.9652 23.7559 18.1396 21.5802C19.2268 20.5917 20.3032 19.5181 21.3385 18.3803C22.8941 20.3007 24.4237 22.5141 24.2163 24.1436ZM21.4723 13.7641C20.4556 12.6637 19.3977 11.6183 18.3277 10.6498C20.2645 9.15938 22.1969 8.09549 23.8006 8.13699C23.9745 8.14149 24.1405 8.14534 24.2988 8.14848C24.6511 9.84835 23.0655 11.9006 21.4723 13.7641ZM15.7567 12.8436C17.0774 13.9997 18.3146 15.1711 19.2931 16.1295C18.3135 17.0891 17.0745 18.2621 15.7521 19.4195C14.7138 18.4122 13.5703 17.2666 12.4924 16.0677C13.4737 15.0547 14.5879 13.9252 15.7567 12.8436Z" fill="white"/>
<path d="M6.67235 27.9693V27.9693C6.93035 28.0353 7.3481 27.9888 7.61735 27.8635C7.8281 27.7668 8.2541 27.3595 11.0164 24.6025C14.5984 21.0205 14.4454 21.2035 14.4416 20.5555C14.4416 20.254 14.4266 20.1805 14.3014 19.9383L14.1604 19.6563L15.9064 17.914L16.2506 18.133C17.5864 18.988 19.3324 19.426 20.9066 19.2933C22.0129 19.1995 22.8289 18.973 23.7859 18.4923C24.5126 18.1458 25.1726 17.6688 25.7306 17.0905C26.9351 15.9108 27.7121 14.3598 27.9349 12.6888C28.0046 12.1915 28.0046 11.0823 27.9349 10.6135C27.5989 8.398 26.4184 6.52 24.6056 5.30125C21.3056 3.0745 16.8364 3.7705 14.3486 6.8875C12.9064 8.6995 12.3596 11.0665 12.8674 13.3285C13.0474 14.1295 13.4494 15.0948 13.8716 15.7585L14.0906 16.1028L12.3484 17.845L12.0701 17.704C11.8279 17.5788 11.7544 17.563 11.4491 17.563C10.8011 17.563 10.9841 17.407 7.3871 21.013C3.8201 24.5868 4.02035 24.3558 4.02035 25.0008C4.0166 25.5783 4.08635 25.6885 5.19935 26.8015C6.1376 27.7345 6.3206 27.8793 6.67235 27.9693ZM21.4841 17.9493L21.4879 17.9538C20.9644 18.0483 19.9294 18.067 19.4216 17.989C17.9096 17.767 16.5221 17.0088 15.5194 15.853C13.5776 13.6255 13.4216 10.3525 15.1406 7.94575C15.4489 7.5085 16.1839 6.7735 16.6286 6.4615C17.3621 5.94175 18.1984 5.57875 19.0774 5.39575C19.6834 5.26675 20.9134 5.25475 21.4916 5.37175C22.3316 5.53975 23.2226 5.90275 23.8586 6.3325C26.5429 8.13325 27.4796 11.5398 26.0899 14.4415C25.1989 16.273 23.4881 17.578 21.4841 17.9493ZM17.7461 25.324L17.7454 25.3233C18.9379 25.6675 19.9376 25.9525 19.9646 25.9563C19.9916 25.9563 20.0344 25.8865 20.0614 25.8003C20.2721 25.0548 20.4836 24.3085 20.6944 23.5615C21.2186 21.7495 21.2846 21.4878 21.2224 21.4608C21.0506 21.379 16.8319 20.1993 16.8086 20.227C16.7576 20.2773 15.5269 24.6483 15.5509 24.676C16.2814 24.9018 17.0119 25.1208 17.7461 25.324ZM20.6599 25.852V25.852C20.6599 25.8708 20.7034 25.8828 20.7581 25.8708C20.8909 25.8438 24.9956 24.6723 25.0159 24.652C25.0466 24.6288 26.2661 20.3118 26.2459 20.293C26.2294 20.2735 21.9529 21.469 21.9056 21.5043C21.8869 21.5163 20.6599 25.7973 20.6599 25.852ZM13.5551 23.938L13.5559 23.9403L12.0206 25.483L13.4419 25.0773C14.2309 24.8538 14.8879 24.655 14.9066 24.64C14.9456 24.601 16.1764 20.308 16.1524 20.2803C16.1449 20.2728 16.0549 20.2885 15.9491 20.3155L15.7699 20.3665L15.7579 20.6755C15.7534 20.8435 15.7264 21.0775 15.6986 21.1945C15.6326 21.4795 15.3979 21.9918 15.2269 22.2108C15.1519 22.312 14.3981 23.086 13.5551 23.938ZM21.8441 20.8788L21.8434 20.8825C21.8539 20.9013 26.2999 19.651 26.3351 19.6203C26.3389 19.6083 26.1199 18.8238 26.0689 18.6595C26.0539 18.625 25.9639 18.6715 25.8041 18.7968C24.6716 19.6518 23.2331 20.2803 21.8944 20.5075L21.7376 20.5345L21.7849 20.6905C21.8014 20.7535 21.8201 20.8158 21.8441 20.8788ZM6.76235 19.5783V19.5775C6.7976 19.6083 6.84035 19.6323 6.85535 19.6323C7.3241 19.183 7.7891 18.7293 8.2421 18.265C8.99585 17.5113 9.68435 16.8475 9.7661 16.7883C9.9026 16.6945 9.9221 16.6638 9.89135 16.5655C9.86285 16.453 9.78935 16.4298 7.6721 15.8238C5.6411 15.2463 5.4806 15.2028 5.49635 15.289C5.5826 15.715 6.71135 19.5393 6.76235 19.5783ZM7.5821 15.199L7.5776 15.1998C8.76935 15.5395 9.7766 15.8245 9.8276 15.8245C9.9056 15.8283 9.97235 15.625 10.5506 13.6053C10.8979 12.3835 11.1761 11.3755 11.1679 11.3673C11.1206 11.3245 6.7226 10.0945 6.6986 10.1133C6.6761 10.141 5.3981 14.5623 5.41385 14.5743C5.41835 14.578 6.39485 14.8593 7.5821 15.199ZM10.5394 15.7383V15.7368C10.5236 15.7758 10.5431 15.7878 10.6024 15.772C10.6459 15.757 10.9969 15.655 11.3876 15.5463C11.7731 15.4375 12.0986 15.3438 12.1054 15.3355C12.1091 15.328 12.0311 15.0858 11.9261 14.7888C11.7274 14.2383 11.5549 13.6053 11.4611 13.051L11.4019 12.73L10.9841 14.203C10.7546 15.016 10.5514 15.7075 10.5394 15.7383ZM8.90585 10.1133L8.91035 10.1125L11.0944 10.7418C11.1259 10.7463 9.89585 6.418 9.8486 6.367C9.8051 6.32425 5.52035 5.09425 5.49635 5.12125C5.47985 5.137 6.68435 9.39475 6.7271 9.457C6.7376 9.47725 7.7186 9.7735 8.90585 10.1133ZM11.0554 8.398L11.0561 8.4025C11.4424 9.766 11.5601 10.0863 11.5601 9.78925C11.5909 9.6025 11.6344 9.41425 11.6921 9.2305C12.0521 7.903 12.7241 6.67675 13.6489 5.65675C13.8244 5.46175 13.9414 5.30575 13.9106 5.32075C13.8716 5.3365 13.0826 5.56675 12.1489 5.8285L10.4576 6.31225L10.5356 6.59425L11.0554 8.398Z" fill="white"/>
</g>
<defs>
<clipPath id="clip0_2701_7338">
<rect width="32" height="32" fill="white"/>
</clipPath>
</defs>
</svg>
