<svg width="32" height="32" viewBox="0 0 32 32" fill="none" xmlns="http://www.w3.org/2000/svg">
<g clip-path="url(#clip0_2515_5028)">
<path d="M4.30006 -1.62572e-05H27.7998C28.3578 0.00649097 28.9092 0.122532 29.4224 0.341483C29.9355 0.560432 30.4003 0.878001 30.7904 1.27605C31.1804 1.67411 31.4879 2.14485 31.6954 2.6614C31.9029 3.17794 32.0063 3.73018 31.9997 4.28656V27.7132C32.0037 28.2772 31.8952 28.8365 31.6805 29.3583C31.4658 29.8802 31.1492 30.3543 30.7492 30.7532C30.3491 31.152 29.8735 31.4675 29.35 31.6816C28.8265 31.8956 28.2655 32.0038 27.6998 31.9998H4.30006C3.15218 31.9687 2.0615 31.4936 1.25892 30.6748C0.456346 29.8562 0.00487903 28.7582 0.000106142 27.6135V4.28656C-0.00388312 3.72253 0.104615 3.16333 0.319294 2.64147C0.533974 2.1196 0.850555 1.64547 1.25063 1.24663C1.65072 0.847788 2.12633 0.532192 2.64983 0.31818C3.17332 0.104167 3.73426 -0.00399313 4.30006 -1.62572e-05Z" fill="#1D1D1D"/>
<path opacity="0.05" fill-rule="evenodd" clip-rule="evenodd" d="M8.60865 16.0873C8.57879 16.0577 8.54809 16.0252 8.51655 15.9893C7.77551 15.148 2.03238 7.57615 4.71868 4.86522C6.5673 2.99966 11.0918 4.85273 15.8168 8.53561C18.1134 6.45388 24.7544 2.27563 27.2278 4.77176C29.4202 6.98424 26.5589 12.2136 23.4484 15.9893C26.559 19.765 29.4204 24.9945 27.228 27.207C24.7769 29.6805 18.2333 25.5999 15.8803 23.5001C11.1323 27.2564 6.57546 29.1098 4.71854 27.3005C2.03224 24.683 7.68273 17.0177 8.51641 16.1763C8.54851 16.1439 8.57924 16.1143 8.60865 16.0873ZM8.14567 8.32406C8.10488 9.92974 9.14216 11.8618 10.6007 13.7928C10.5776 13.7461 10.5543 13.6991 10.5543 13.6524C11.2746 12.9254 12.3683 11.8719 13.3967 10.8825C11.4341 9.35004 9.51071 8.12741 8.15541 7.9033C8.15264 8.03813 8.14938 8.17833 8.14567 8.32406ZM10.5426 18.2207C11.009 18.6908 12.3384 20.0289 13.5626 21.2463C11.4416 22.9192 9.34897 24.2536 7.95036 24.3825C7.73484 23.9097 8.28569 21.1248 10.5426 18.2207ZM24.2163 24.1436C24.4237 22.5141 22.8941 20.3007 21.3385 18.3803C20.3032 19.5181 19.2268 20.5917 18.1396 21.5802C20.9652 23.7559 23.6765 24.3298 24.2163 24.1436ZM21.4723 13.7641C23.0655 11.9006 24.6511 9.84835 24.2988 8.14848C24.1405 8.14534 23.9745 8.14149 23.8006 8.13699C22.1969 8.09549 20.2645 9.15938 18.3277 10.6498C19.3977 11.6183 20.4556 12.6637 21.4723 13.7641ZM15.7567 12.8436C17.0774 13.9997 18.3146 15.1711 19.2931 16.1295C18.3135 17.0891 17.0745 18.2621 15.7521 19.4195C14.7138 18.4122 13.5703 17.2666 12.4924 16.0677C13.4737 15.0547 14.5879 13.9252 15.7567 12.8436Z" fill="white"/>
<path fill-rule="evenodd" clip-rule="evenodd" d="M7.04774 13.4H8.95233C8.96098 13.1613 8.95437 12.8757 8.9082 12.5987C8.8543 12.2752 8.75549 12.0188 8.61723 11.8529C8.50001 11.7122 8.32696 11.6 8.00004 11.6C7.67311 11.6 7.50006 11.7122 7.38284 11.8529C7.24458 12.0188 7.14578 12.2752 7.09187 12.5987C7.04571 12.8757 7.03909 13.1613 7.04774 13.4ZM10.153 13.4C10.1613 13.1152 10.152 12.7621 10.0919 12.4014C10.0208 11.9748 9.86958 11.4812 9.53909 11.0847C9.18756 10.6628 8.67311 10.4 8.00004 10.4C7.32696 10.4 6.81251 10.6628 6.46098 11.0847C6.13049 11.4812 5.9793 11.9748 5.9082 12.4014C5.84807 12.7621 5.83875 13.1152 5.8471 13.4H5.50004H4.95211L4.9025 13.9457L4.4025 19.4457L4.34302 20.1H5.00004H11H11.6571L11.5976 19.4457L11.0976 13.9457L11.048 13.4H10.5H10.153ZM9.95211 14.6H9.50004H6.50004H6.04797L5.65706 18.9H10.343L9.95211 14.6ZM15.25 15.25V13H16.75V15.25H19V16.75H16.75V19H15.25V16.75H13V15.25H15.25ZM24.9082 12.5987C24.9544 12.8757 24.961 13.1613 24.9523 13.4H23.0477C23.0391 13.1613 23.0457 12.8757 23.0919 12.5987C23.1458 12.2752 23.2446 12.0188 23.3828 11.8529C23.5001 11.7122 23.6731 11.6 24 11.6C24.327 11.6 24.5 11.7122 24.6172 11.8529C24.7555 12.0188 24.8543 12.2752 24.9082 12.5987ZM26.0919 12.4014C26.152 12.7621 26.1613 13.1152 26.153 13.4H26.5H27.048L27.0976 13.9457L27.5976 19.4457L27.6571 20.1H27H21H20.343L20.4025 19.4457L20.9025 13.9457L20.9521 13.4H21.5H21.8471C21.8388 13.1152 21.8481 12.7621 21.9082 12.4014C21.9793 11.9748 22.1305 11.4812 22.461 11.0847C22.8125 10.6628 23.327 10.4 24 10.4C24.6731 10.4 25.1876 10.6628 25.5391 11.0847C25.8696 11.4812 26.0208 11.9748 26.0919 12.4014ZM25.5 14.6H25.9521L26.343 18.9H21.6571L22.048 14.6H22.5H25.5Z" fill="white"/>
</g>
<defs>
<clipPath id="clip0_2515_5028">
<rect width="32" height="32" fill="white"/>
</clipPath>
</defs>
</svg>
