<svg width="32" height="32" viewBox="0 0 32 32" fill="none" xmlns="http://www.w3.org/2000/svg">
<g clip-path="url(#clip0_2221_5028)">
<path d="M4.30006 -1.62572e-05H27.7998C28.3578 0.00649097 28.9092 0.122532 29.4224 0.341483C29.9355 0.560432 30.4003 0.878001 30.7904 1.27605C31.1804 1.67411 31.4879 2.14485 31.6954 2.6614C31.9029 3.17794 32.0063 3.73018 31.9997 4.28656V27.7132C32.0037 28.2772 31.8952 28.8365 31.6805 29.3583C31.4658 29.8802 31.1492 30.3543 30.7492 30.7532C30.3491 31.152 29.8735 31.4675 29.35 31.6816C28.8265 31.8956 28.2655 32.0038 27.6998 31.9998H4.30006C3.15218 31.9687 2.0615 31.4936 1.25892 30.6748C0.456346 29.8562 0.00487903 28.7582 0.000106142 27.6135V4.28656C-0.00388312 3.72253 0.104615 3.16333 0.319294 2.64147C0.533974 2.1196 0.850555 1.64547 1.25063 1.24663C1.65072 0.847788 2.12633 0.532192 2.64983 0.31818C3.17332 0.104167 3.73426 -0.00399313 4.30006 -1.62572e-05Z" fill="#1D1D1D"/>
<path opacity="0.05" fill-rule="evenodd" clip-rule="evenodd" d="M8.60865 16.0873C8.57879 16.0577 8.54809 16.0252 8.51655 15.9893C7.77551 15.148 2.03238 7.57615 4.71868 4.86522C6.5673 2.99966 11.0918 4.85273 15.8168 8.53561C18.1134 6.45388 24.7544 2.27563 27.2278 4.77176C29.4202 6.98424 26.5589 12.2136 23.4484 15.9893C26.559 19.765 29.4204 24.9945 27.228 27.207C24.7769 29.6805 18.2333 25.5999 15.8803 23.5001C11.1323 27.2564 6.57546 29.1098 4.71854 27.3005C2.03224 24.683 7.68273 17.0177 8.51641 16.1763C8.54851 16.1439 8.57924 16.1143 8.60865 16.0873ZM8.14567 8.32406C8.10488 9.92974 9.14216 11.8618 10.6007 13.7928C10.5776 13.7461 10.5543 13.6991 10.5543 13.6524C11.2746 12.9254 12.3683 11.8719 13.3967 10.8825C11.4341 9.35004 9.51071 8.12741 8.15541 7.9033C8.15264 8.03813 8.14938 8.17833 8.14567 8.32406ZM10.5426 18.2207C11.009 18.6908 12.3384 20.0289 13.5626 21.2463C11.4416 22.9192 9.34897 24.2536 7.95036 24.3825C7.73484 23.9097 8.28569 21.1248 10.5426 18.2207ZM24.2163 24.1436C24.4237 22.5141 22.8941 20.3007 21.3385 18.3803C20.3032 19.5181 19.2268 20.5917 18.1396 21.5802C20.9652 23.7559 23.6765 24.3298 24.2163 24.1436ZM21.4723 13.7641C23.0655 11.9006 24.6511 9.84835 24.2988 8.14848C24.1405 8.14534 23.9745 8.14149 23.8006 8.13699C22.1969 8.09549 20.2645 9.15938 18.3277 10.6498C19.3977 11.6183 20.4556 12.6637 21.4723 13.7641ZM15.7567 12.8436C17.0774 13.9997 18.3146 15.1711 19.2931 16.1295C18.3135 17.0891 17.0745 18.2621 15.7521 19.4195C14.7138 18.4122 13.5703 17.2666 12.4924 16.0677C13.4737 15.0547 14.5879 13.9252 15.7567 12.8436Z" fill="white"/>
<path d="M24.932 11.0264C23.4268 7.85741 20.004 5 16 5C11.4948 5 8.25642 8.52428 7.06798 11.0264C6.97734 11.2173 6.97734 11.4389 7.06798 11.6298C8.57324 14.7988 11.996 17.6562 16 17.6562C20.5052 17.6562 23.7436 14.1318 24.932 11.6298C25.0227 11.4389 25.0227 11.2173 24.932 11.0264ZM16 16.25C12.7607 16.25 10.0749 14.1152 8.4995 11.3281C10.0683 8.55243 12.7524 6.40625 16 6.40625C19.239 6.40625 21.9251 8.54076 23.5005 11.3281C21.9317 14.1037 19.2476 16.25 16 16.25ZM16 7.8125C14.0615 7.8125 12.4844 9.38959 12.4844 11.3281C12.4844 13.2667 14.0615 14.8438 16 14.8438C17.9385 14.8438 19.5156 13.2667 19.5156 11.3281C19.5156 9.38959 17.9385 7.8125 16 7.8125V7.8125ZM16 13.4375C14.837 13.4375 13.8906 12.4912 13.8906 11.3281C13.8906 10.1649 14.837 9.21875 16 9.21875C17.1632 9.21875 18.1094 10.1649 18.1094 11.3281C18.1094 12.4912 17.1632 13.4375 16 13.4375V13.4375Z" fill="white"/>
<path d="M15.05 26.1C15.45 26.1 15.65 26.27 15.65 26.61C15.65 26.9633 15.45 27.14 15.05 27.14H11.67C11.2633 27.14 11.06 26.9633 11.06 26.61C11.06 26.27 11.2633 26.1 11.67 26.1H12.71V21.54L11.75 22.13C11.6567 22.1833 11.5733 22.21 11.5 22.21C11.36 22.21 11.24 22.15 11.14 22.03C11.0467 21.91 11 21.7767 11 21.63C11 21.4367 11.0867 21.2867 11.26 21.18L12.81 20.22C13.01 20.1 13.2 20.04 13.38 20.04C13.5667 20.04 13.7167 20.0967 13.83 20.21C13.9433 20.3233 14 20.48 14 20.68V26.1H15.05Z" fill="white"/>
<path d="M21.0161 26.1C21.4161 26.1 21.6161 26.27 21.6161 26.61C21.6161 26.9633 21.4161 27.14 21.0161 27.14H17.2161C17.0428 27.14 16.9061 27.09 16.8061 26.99C16.7061 26.8833 16.6561 26.7533 16.6561 26.6C16.6561 26.4 16.7328 26.22 16.8861 26.06L19.1661 23.61C19.4461 23.3033 19.6494 23.0233 19.7761 22.77C19.9094 22.51 19.9761 22.2533 19.9761 22C19.9761 21.6867 19.8861 21.4467 19.7061 21.28C19.5261 21.1133 19.2694 21.03 18.9361 21.03C18.6628 21.03 18.3961 21.0833 18.1361 21.19C17.8828 21.29 17.6261 21.43 17.3661 21.61C17.2994 21.6567 17.2328 21.6967 17.1661 21.73C17.0994 21.7567 17.0328 21.77 16.9661 21.77C16.8528 21.77 16.7528 21.7167 16.6661 21.61C16.5861 21.5033 16.5461 21.3767 16.5461 21.23C16.5461 21.13 16.5628 21.0433 16.5961 20.97C16.6361 20.8967 16.6961 20.8267 16.7761 20.76C17.0694 20.5267 17.4128 20.3433 17.8061 20.21C18.1994 20.07 18.5928 20 18.9861 20C19.6728 20 20.2194 20.1733 20.6261 20.52C21.0394 20.8667 21.2461 21.3333 21.2461 21.92C21.2461 22.3267 21.1594 22.71 20.9861 23.07C20.8128 23.4233 20.5194 23.82 20.1061 24.26L18.3761 26.1H21.0161Z" fill="white"/>
</g>
<defs>
<clipPath id="clip0_2221_5028">
<rect width="32" height="32" fill="white"/>
</clipPath>
</defs>
</svg>
